<svg width="24" height="24" viewBox="0 0 24 24" fill="none" xmlns="http://www.w3.org/2000/svg">
<g clip-path="url(#clip0)">
<path fill-rule="evenodd" clip-rule="evenodd" d="M14.5416 9.78566L18.9738 7.75903C18.9738 11.3076 16.5314 14.9738 14.3645 18.467L10.6499 24.0001L12.275 13.8973L14.5416 9.7861V9.78566Z" fill="#C5141C"/>
<path d="M11.5 15.0527C15.6421 15.0527 19 11.683 19 7.52633C19 3.36965 15.6421 0 11.5 0C7.35786 0 4 3.36965 4 7.52633C4 11.683 7.35786 15.0527 11.5 15.0527Z" fill="#EE0000"/>
<path d="M11.5 10.5369C13.1569 10.5369 14.5 9.18907 14.5 7.5264C14.5 5.86373 13.1569 4.51587 11.5 4.51587C9.84315 4.51587 8.5 5.86373 8.5 7.5264C8.5 9.18907 9.84315 10.5369 11.5 10.5369Z" fill="white"/>
</g>
<defs>
<clipPath id="clip0">
<rect width="24" height="24" fill="white"/>
</clipPath>
</defs>
</svg>
