<svg viewBox="0 0 48 48" fill="none" xmlns="http://www.w3.org/2000/svg">
<g clip-path="url(#clip0_3337_2795)">
<path fill-rule="evenodd" clip-rule="evenodd" d="M36.2844 16.1679H34.7768C34.1896 16.1679 33.6459 16.4752 33.3424 16.9782L27.4634 26.7372V17.0006C27.4634 16.5408 27.0912 16.1679 26.6312 16.1679H25.0204C24.5603 16.1679 24.1867 16.541 24.1867 17.0006V31.2185C24.1867 31.678 24.5601 32.0496 25.0204 32.0496H26.5191C27.1048 32.0496 27.6484 31.7437 27.9518 31.2408L33.831 21.5025V31.2185C33.831 31.678 34.2044 32.0496 34.6647 32.0496H36.2844C36.7445 32.0496 37.118 31.678 37.118 31.2185V17.0006C37.118 16.5408 36.7443 16.1679 36.2844 16.1679ZM21.1853 29.5085H15.1879L18.8037 25.7016C19.7928 24.6181 20.4919 23.6694 20.8999 22.8546C21.3077 22.0397 21.5123 21.2402 21.5123 20.4552C21.5123 19.0224 21.0581 17.914 20.1529 17.1291C19.246 16.3425 17.973 15.9502 16.3355 15.9502C15.2641 15.95 14.308 16.1784 13.4624 16.632C12.6181 17.087 11.9653 17.7139 11.502 18.5137C11.2047 19.03 11.0017 19.5805 10.8956 20.1671C10.8029 20.6849 11.1944 21.164 11.7233 21.164L13.2083 21.1639C13.6178 21.1639 13.9628 20.8669 14.036 20.464C14.1241 19.9791 14.3094 19.5672 14.5934 19.2285C15.0043 18.7375 15.5674 18.4913 16.2802 18.4913C16.9434 18.4912 17.4531 18.6944 17.81 19.097C18.1658 19.4999 18.3449 20.0552 18.3449 20.7611C18.3449 21.2775 18.1761 21.822 17.8371 22.3966C17.4978 22.9708 16.9763 23.6438 16.2698 24.4138L11.8083 29.1635C11.3692 29.6307 11.1257 30.247 11.1257 30.8871V31.2109C11.1257 31.6735 11.502 32.0496 11.9668 32.0496H21.1853C21.6484 32.0496 22.0248 31.6735 22.0248 31.2109V30.3486C22.0248 29.8843 21.6484 29.5085 21.1853 29.5085Z" fill="white"/>
<path fill-rule="evenodd" clip-rule="evenodd" d="M8.13554 44.7305C5.44385 44.7305 3.26181 42.549 3.26181 39.8576C3.26181 37.1663 5.44385 34.9846 8.13554 34.9846C10.8272 34.9846 13.0093 37.1663 13.0093 39.8576C13.0093 42.549 10.8272 44.7305 8.13554 44.7305ZM32.8168 1.68548C33.4435 1.8894 33.6853 2.16943 33.039 2.88739L32.0756 3.85187C31.6139 4.31378 31.1424 4.28697 30.4801 4.02421C25.6924 2.46957 20.3337 2.62061 15.3816 4.84868C5.50314 9.29333 0.738609 20.4304 4.03067 30.4973C4.29406 31.1594 4.35499 31.5804 3.89346 32.0424L2.92989 33.0069C2.21257 33.6537 1.89853 33.4626 1.69399 32.8361C-3.01602 20.9809 2.40147 7.40548 14.1527 2.11819C20.3036 -0.649239 27.0028 -0.610958 32.8168 1.68548ZM15.1833 46.3145C14.5565 46.1106 14.3147 45.8304 14.9609 45.1126L15.9244 44.1481C16.3861 43.6861 16.8575 43.713 17.52 43.9758C22.3076 45.5304 27.6664 45.3794 32.6185 43.1513C42.4969 38.7067 47.2614 27.5696 43.9694 17.5027C43.706 16.8406 43.645 16.4196 44.1066 15.9576L45.0701 14.9931C45.7875 14.3463 46.1015 14.5374 46.306 15.1639C51.016 27.0191 45.5984 40.5945 33.8472 45.8818C27.6966 48.6492 20.9972 48.611 15.1833 46.3145ZM39.8627 13.0078C37.171 13.0078 34.989 10.8261 34.989 8.13477C34.989 5.44345 37.171 3.26171 39.8627 3.26171C42.5544 3.26171 44.7364 5.44345 44.7364 8.13477C44.7364 10.8261 42.5544 13.0078 39.8627 13.0078ZM39.8627 9.9967C38.8343 9.9967 38.0005 9.16315 38.0005 8.13477C38.0005 7.10653 38.8343 6.27283 39.8627 6.27283C40.8912 6.27283 41.7249 7.10653 41.7249 8.13477C41.7249 9.16315 40.8912 9.9967 39.8627 9.9967ZM8.13554 41.7196C7.10701 41.7196 6.27335 40.8859 6.27335 39.8576C6.27335 38.8293 7.10701 37.9957 8.13554 37.9957C9.16392 37.9957 9.99773 38.8293 9.99773 39.8576C9.99773 40.8859 9.16392 41.7196 8.13554 41.7196Z" fill="white"/>
</g>
<defs>
<clipPath id="clip0_3337_2795">
<rect width="48" height="48" fill="white"/>
</clipPath>
</defs>
</svg>
