<svg width="24" height="24" viewBox="0 0 24 24" fill="none" xmlns="http://www.w3.org/2000/svg">
<path d="M21.8125 12.75L18.4063 7.25C18.3125 7.09375 18.1563 7 18 7C17.8125 7 17.6563 7.09375 17.5625 7.25L14.1563 12.75C14.0313 12.9062 13.9688 13.125 14 13.3438C14.1563 15.4062 15.875 17 18 17C20.0938 17 21.8125 15.4062 21.9688 13.3438C22 13.125 21.9375 12.9062 21.8125 12.75ZM18 16C16.6875 16 15.5625 15.1562 15.1563 14H20.8125C20.4063 15.1875 19.2813 16 18 16ZM15.1563 13L18 8.46875L20.8125 13H15.1563ZM18.75 19H12.5V7.9375C13.3438 7.71875 14 6.9375 14 6H18.75C18.875 6 19 5.90625 19 5.75V5.25C19 5.125 18.875 5 18.75 5H13.6875C13.6875 5 13.5625 4.65625 13.0938 4.34375C12.7813 4.15625 12.4063 4 12 4C11.5625 4 11.1875 4.15625 10.875 4.34375C10.4063 4.65625 10.2813 5 10.2813 5H5.25003C5.09378 5 5.00003 5.125 5.00003 5.25V5.75C5.00003 5.90625 5.09378 6 5.25003 6H10C10 6.9375 10.625 7.71875 11.5 7.9375V19H5.25003C5.09378 19 5.00003 19.125 5.00003 19.25V19.75C5.00003 19.9062 5.09378 20 5.25003 20H18.75C18.875 20 19 19.9062 19 19.75V19.25C19 19.125 18.875 19 18.75 19ZM11 6C11 5.46875 11.4375 5 12 5C12.5313 5 13 5.46875 13 6C13 6.5625 12.5313 7 12 7C11.4375 7 11 6.5625 11 6ZM9.96878 13.3438C10 13.125 9.93753 12.9062 9.81253 12.75L6.40628 7.25C6.31253 7.09375 6.15628 7 6.00003 7C5.81253 7 5.65628 7.09375 5.56253 7.25L2.15628 12.75C2.03128 12.9062 1.96878 13.125 2.00003 13.3438C2.15628 15.4062 3.87503 17 6.00003 17C8.09378 17 9.81253 15.4062 9.96878 13.3438ZM6.00003 8.46875L8.81253 13H3.15628L6.00003 8.46875ZM3.15628 14H8.81253C8.40628 15.1875 7.28128 16 6.00003 16C4.68753 16 3.56253 15.1562 3.15628 14Z" fill="#222222"/>
</svg>
