<svg width="24" height="24" viewBox="0 0 24 24" fill="none" xmlns="http://www.w3.org/2000/svg">
<path d="M10 14.5H9.96877C9.96877 14 10.0313 14.25 7.31252 8.84375C7.06252 8.28125 6.53127 8 5.96877 8C5.43752 8 4.90627 8.28125 4.65627 8.84375C1.90627 14.2812 2.00002 14.0312 2.00002 14.5C2.00002 15.9062 3.78127 17 6.00002 17C8.18752 17 10 15.9062 10 14.5ZM4.59377 12.3125C4.93752 11.5938 5.40627 10.6875 5.96877 9.53125V9.5H6.00002C6.59377 10.75 7.09377 11.6875 7.43752 12.4062C7.78127 13.125 8.06252 13.6562 8.25002 14H3.71877C3.93752 13.625 4.21877 13.0625 4.59377 12.3125ZM18.5 18.5H12.75V8.875C13.5938 8.625 14.25 7.90625 14.4375 7H18.5C18.75 7 19 6.78125 19 6.5V6C19 5.75 18.75 5.5 18.5 5.5H14.2813C13.875 4.625 13 4 12 4C10.9688 4 10.0938 4.625 9.68752 5.5H5.50002C5.21877 5.5 5.00002 5.75 5.00002 6V6.5C5.00002 6.78125 5.21877 7 5.50002 7H9.53127C9.71877 7.90625 10.375 8.625 11.25 8.875V18.5H5.50002C5.21877 18.5 5.00002 18.75 5.00002 19V19.5C5.00002 19.7812 5.21877 20 5.50002 20H18.5C18.75 20 19 19.7812 19 19.5V19C19 18.75 18.75 18.5 18.5 18.5ZM12 7.5C11.4375 7.5 11 7.0625 11 6.5C11 5.96875 11.4375 5.5 12 5.5C12.5313 5.5 13 5.96875 13 6.5C13 7.0625 12.5313 7.5 12 7.5ZM21.9688 14.5C21.9688 14 22.0313 14.25 19.3125 8.84375C19.0625 8.28125 18.5313 8 17.9688 8C17.4375 8 16.9063 8.28125 16.6563 8.84375C13.9063 14.2812 14 14.0312 14 14.5C14 15.9062 15.7813 17 18 17C20.1875 17 22 15.9062 22 14.5H21.9688ZM15.7188 14C15.9375 13.625 16.2188 13.0625 16.5938 12.3125C16.9375 11.5938 17.4063 10.6875 17.9688 9.53125V9.5H18C18.5938 10.75 19.0938 11.6875 19.4375 12.4062C19.7813 13.125 20.0625 13.6562 20.25 14H15.7188Z" fill="#222222"/>
</svg>
