<svg width="24" height="24" viewBox="0 0 24 24" fill="none" xmlns="http://www.w3.org/2000/svg">
<path d="M10 14.5H9.96877C9.96877 14 10.0313 14.25 7.31252 8.84375C6.78127 7.75 5.18752 7.75 4.65627 8.84375C1.90627 14.2812 2.00002 14.0312 2.00002 14.5C2.00002 15.9062 3.78127 17 6.00002 17C8.18752 17 10 15.9062 10 14.5ZM6.00002 9.5L8.25002 14H3.75002L6.00002 9.5ZM21.9688 14.5C21.9688 14 22.0313 14.25 19.3125 8.84375C18.7813 7.75 17.1875 7.75 16.6563 8.84375C13.9063 14.2812 14 14.0312 14 14.5C14 15.9062 15.7813 17 18 17C20.1875 17 22 15.9062 22 14.5H21.9688ZM15.75 14L18 9.5L20.25 14H15.75ZM18.5 18H13V8.8125C13.7188 8.46875 14.2813 7.8125 14.4375 7H18.5C18.75 7 19 6.78125 19 6.5V5.5C19 5.25 18.75 5 18.5 5H13.9688C13.5313 4.40625 12.8125 4 12 4C11.1563 4 10.4375 4.40625 10 5H5.50002C5.21877 5 5.00002 5.25 5.00002 5.5V6.5C5.00002 6.78125 5.21877 7 5.50002 7H9.53127C9.68752 7.8125 10.25 8.46875 11 8.8125V18H5.50002C5.21877 18 5.00002 18.25 5.00002 18.5V19.5C5.00002 19.7812 5.21877 20 5.50002 20H18.5C18.75 20 19 19.7812 19 19.5V18.5C19 18.25 18.75 18 18.5 18Z" fill="#222222"/>
</svg>
