<svg width="24" height="24" viewBox="0 0 24 24" fill="none" xmlns="http://www.w3.org/2000/svg">
<path d="M12 4.25C7.71875 4.25 4.25 7.75 4.25 12C4.25 16.2812 7.71875 19.75 12 19.75C16.25 19.75 19.75 16.2812 19.75 12C19.75 7.75 16.25 4.25 12 4.25ZM16.0625 7.9375C18.0938 10 18.25 13.125 16.6875 15.3125L8.6875 7.3125C10.875 5.75 14 5.90625 16.0625 7.9375ZM7.90625 16.0938C5.875 14.0312 5.71875 10.9062 7.28125 8.71875L15.2812 16.7188C13.0938 18.2812 9.96875 18.125 7.90625 16.0938Z" fill="#222222"/>
</svg>
