<svg width="24" height="24" viewBox="0 0 24 24" fill="none" xmlns="http://www.w3.org/2000/svg">
<path d="M12 4.25C7.71875 4.25 4.25 7.75 4.25 12C4.25 16.2812 7.71875 19.75 12 19.75C16.25 19.75 19.75 16.2812 19.75 12C19.75 7.75 16.25 4.25 12 4.25ZM16.4062 7.59375C18.6875 9.875 18.8125 13.4375 16.9062 15.875L8.125 7.09375C10.5625 5.1875 14.125 5.3125 16.4062 7.59375ZM7.5625 16.4375C5.28125 14.1562 5.15625 10.5938 7.0625 8.15625L15.8438 16.9375C13.4062 18.8438 9.84375 18.7188 7.5625 16.4375Z" fill="#222222"/>
</svg>
