<svg width="24" height="24" viewBox="0 0 24 24" fill="none" xmlns="http://www.w3.org/2000/svg">
<path d="M12 4.25C7.71875 4.25 4.25 7.75 4.25 12C4.25 16.2812 7.71875 19.75 12 19.75C16.25 19.75 19.75 16.2812 19.75 12C19.75 7.75 16.25 4.25 12 4.25ZM7.21875 16.7812C4.6875 14.2812 4.59375 10.25 6.875 7.59375L16.4062 17.125C13.75 19.4062 9.71875 19.3125 7.21875 16.7812ZM17.0938 16.4375L7.5625 6.90625C10.2188 4.625 14.25 4.71875 16.75 7.25C19.2812 9.75 19.375 13.7812 17.0938 16.4375Z" fill="#222222"/>
</svg>
