<svg width="24" height="24" viewBox="0 0 24 24" fill="none" xmlns="http://www.w3.org/2000/svg">
<path d="M18.8125 7.5625C18.9062 7.5625 19 7.5 19 7.375V6.625C19 6.53125 18.9062 6.4375 18.8125 6.4375H5.1875C5.0625 6.4375 5 6.53125 5 6.625V7.375C5 7.5 5.0625 7.5625 5.1875 7.5625H18.8125ZM18.8125 12.5625C18.9062 12.5625 19 12.5 19 12.375V11.625C19 11.5312 18.9062 11.4375 18.8125 11.4375H5.1875C5.0625 11.4375 5 11.5312 5 11.625V12.375C5 12.5 5.0625 12.5625 5.1875 12.5625H18.8125ZM18.8125 17.5625C18.9062 17.5625 19 17.5 19 17.375V16.625C19 16.5312 18.9062 16.4375 18.8125 16.4375H5.1875C5.0625 16.4375 5 16.5312 5 16.625V17.375C5 17.5 5.0625 17.5625 5.1875 17.5625H18.8125Z" fill="#222222"/>
</svg>
