<svg width="24" height="24" viewBox="0 0 24 24" fill="none" xmlns="http://www.w3.org/2000/svg">
<path d="M19.75 12H6V5.9375C6 5.4375 6.40625 5 6.90625 5C7.09375 5 7.40625 5.125 7.53125 5.28125L8.34375 6.0625C8.15625 6.375 8 6.90625 8 7.25C8 7.90625 8.25 8.46875 8.6875 8.875L8.3125 9.21875C8.28125 9.28125 8.25 9.34375 8.25 9.40625C8.25 9.46875 8.28125 9.5625 8.3125 9.59375L8.65625 9.9375C8.71875 9.96875 8.78125 10 8.84375 10C8.90625 10 8.96875 9.96875 9.03125 9.9375L12.9062 6.0625C12.9375 6 13 5.9375 13 5.875C13 5.8125 12.9375 5.75 12.9062 5.6875L12.5625 5.34375C12.5312 5.3125 12.4375 5.28125 12.375 5.28125C12.3125 5.28125 12.25 5.3125 12.2188 5.34375L11.8438 5.71875C11.4375 5.28125 10.875 5 10.25 5C9.875 5.03125 9.34375 5.1875 9.03125 5.375L8.25 4.5625C7.9375 4.28125 7.34375 4.03125 6.90625 4.03125C5.84375 4.03125 5 4.875 5 5.9375V12H4.25C4.09375 12 4 12.125 4 12.25V12.75C4 12.9062 4.09375 13 4.25 13H5V16C5 17.3125 5.8125 18.4062 7 18.8438V19.75C7 19.9062 7.09375 20 7.25 20H7.75C7.875 20 8 19.9062 8 19.75V19H16V19.75C16 19.9062 16.0938 20 16.25 20H16.75C16.875 20 17 19.9062 17 19.75V18.8438C18.1562 18.4062 19 17.3125 19 16V13H19.75C19.875 13 20 12.9062 20 12.75V12.25C20 12.125 19.875 12 19.75 12ZM11.125 6.40625L9.375 8.15625C9.15625 7.96875 9 7.5625 9 7.25C9 6.5625 9.53125 6 10.25 6C10.5312 6.03125 10.9375 6.1875 11.125 6.40625ZM18 16C17.9688 17.125 17.0938 18 16 18H8C6.875 18 6 17.125 6 16V13H18V16Z" fill="#222222"/>
</svg>
