<svg width="24" height="24" viewBox="0 0 24 24" fill="none" xmlns="http://www.w3.org/2000/svg">
<path d="M19.5 12H6.5V6.1875C6.5 5.8125 6.78125 5.53125 7.15625 5.53125C7.3125 5.53125 7.5 5.59375 7.625 5.71875L8 6.09375C7.84375 6.375 7.75 6.84375 7.75 7.15625C7.75 7.6875 8.0625 8.46875 8.46875 8.84375C8.40625 8.90625 8.34375 9.0625 8.34375 9.15625C8.34375 9.28125 8.40625 9.4375 8.5 9.5L8.84375 9.875C8.90625 9.9375 9.0625 10 9.1875 10C9.3125 10 9.46875 9.9375 9.53125 9.875L12.8438 6.5625C12.9062 6.5 12.9688 6.34375 12.9688 6.21875C12.9688 6.09375 12.9062 5.9375 12.8438 5.875L12.5 5.5C12.4062 5.4375 12.25 5.375 12.125 5.375C12.0312 5.375 11.875 5.4375 11.8125 5.5C11.4375 5.09375 10.6562 4.78125 10.125 4.78125C9.8125 4.78125 9.34375 4.875 9.0625 5.03125L8.6875 4.65625C8.34375 4.3125 7.65625 4 7.15625 4C5.96875 4 5 4.96875 5 6.1875V12H4.5C4.21875 12 4 12.25 4 12.5V13C4 13.2812 4.21875 13.5 4.5 13.5H5V16C5 16.75 5.4375 17.75 6 18.25V19.5C6 19.7812 6.21875 20 6.5 20H7C7.25 20 7.5 19.7812 7.5 19.5V18.9688C7.625 19 7.84375 19 8 19H16C16.125 19 16.3438 19 16.5 18.9688V19.5C16.5 19.7812 16.7188 20 17 20H17.5C17.75 20 18 19.7812 18 19.5V18.25C18.5312 17.75 18.9688 16.75 19 16V13.5H19.5C19.75 13.5 20 13.2812 20 13V12.5C20 12.25 19.75 12 19.5 12ZM9.5625 7.78125C9.375 7.625 9.25 7.40625 9.25 7.125C9.25 6.65625 9.625 6.25 10.125 6.25C10.375 6.25 10.5938 6.40625 10.75 6.59375C10.4062 6.9375 10 7.34375 9.5625 7.78125ZM17.5 16C17.4688 16.8438 16.8125 17.5 16 17.5H8C7.15625 17.5 6.5 16.8438 6.5 16V13.5H17.5V16Z" fill="#222222"/>
</svg>
