<svg width="24" height="24" viewBox="0 0 24 24" fill="none" xmlns="http://www.w3.org/2000/svg">
<path d="M5 16C5 16.75 5.4375 17.75 6 18.25V19.5C6 19.7812 6.21875 20 6.5 20H7.5C7.75 20 8 19.7812 8 19.5V19H16V19.5C16 19.7812 16.2188 20 16.5 20H17.5C17.75 20 18 19.7812 18 19.5V18.25C18.5312 17.75 18.9688 16.75 19 16V14.5H5V16ZM19.5 12H6.5V6.1875C6.5 5.8125 6.78125 5.53125 7.15625 5.53125C7.3125 5.53125 7.5 5.59375 7.625 5.71875L8.21875 6.3125C7.8125 7.25 7.96875 8.15625 8.5 8.8125C8.40625 8.875 8.34375 9.0625 8.34375 9.15625C8.34375 9.28125 8.40625 9.4375 8.5 9.5L8.84375 9.875C8.90625 9.9375 9.0625 10 9.1875 10C9.3125 10 9.46875 9.9375 9.53125 9.875L12.8438 6.5625C12.9062 6.5 12.9688 6.34375 12.9688 6.21875C12.9688 6.09375 12.9062 5.9375 12.8438 5.875L12.5 5.5C12.4062 5.4375 12.25 5.375 12.125 5.375C12.0312 5.375 11.8438 5.4375 11.7812 5.5V5.53125C11.125 5 10.2188 4.84375 9.28125 5.25L8.6875 4.65625C8.34375 4.3125 7.65625 4 7.15625 4C5.96875 4 5 5 5 6.1875V12H4.5C4.21875 12 4 12.25 4 12.5V13C4 13.2812 4.21875 13.5 4.5 13.5H19.5C19.75 13.5 20 13.2812 20 13V12.5C20 12.25 19.75 12 19.5 12Z" fill="#222222"/>
</svg>
