<svg width="24" height="24" viewBox="0 0 24 24" fill="none" xmlns="http://www.w3.org/2000/svg">
<path d="M19 11.0938V6.5C19 5.6875 18.3125 5 17.5 5H6.5C5.65625 5 5 5.6875 5 6.5V11.0938C4.40625 11.2188 4 11.7188 4 12.3438V18.75C4 18.9062 4.09375 19 4.25 19H4.75C4.875 19 5 18.9062 5 18.75V17H19V18.75C19 18.9062 19.0938 19 19.25 19H19.75C19.875 19 20 18.9062 20 18.75V12.3438C20 11.7188 19.5625 11.2188 19 11.0938ZM6 10C6 9.46875 6.4375 9 7 9H10.5C11.0312 9 11.5 9.46875 11.5 10V11H6V10ZM18 11H12.5V10C12.5 9.46875 12.9375 9 13.5 9H17C17.5312 9 18 9.46875 18 10V11ZM6.5 6H17.5C17.75 6 18 6.25 18 6.5V8.28125C17.7188 8.15625 17.2812 8.03125 17 8H13.4688C13 8 12.3125 8.3125 12 8.6875C11.6562 8.3125 10.9688 8 10.5 8H7C6.6875 8.03125 6.25 8.15625 6 8.28125V6.5C6 6.25 6.21875 6 6.5 6ZM5 16V12.3438C5 12.1562 5.125 12.0312 5.3125 12H18.6562C18.8438 12.0312 18.9688 12.1562 19 12.3438V16H5Z" fill="#222222"/>
</svg>
