<svg width="24" height="24" viewBox="0 0 24 24" fill="none" xmlns="http://www.w3.org/2000/svg">
<path d="M6.5 9C6.5 8.46875 6.9375 8 7.5 8H10.5C11.0312 8 11.5 8.46875 11.5 9V10H12.5V9C12.5 8.46875 12.9375 8 13.5 8H16.5C17.0312 8 17.5 8.46875 17.5 9V10H19V6C19 5.46875 18.5312 5 18 5H6C5.4375 5 5 5.46875 5 6V10H6.5V9ZM18 11H6C4.875 11 4 11.9062 4 13V18.5C4 18.7812 4.21875 19 4.5 19H5C5.25 19 5.5 18.7812 5.5 18.5V17H18.5V18.5C18.5 18.7812 18.7188 19 19 19H19.5C19.75 19 20 18.7812 20 18.5V13C20 11.9062 19.0938 11 18 11ZM18.5 15.5H5.5V13C5.5 12.75 5.71875 12.5 6 12.5H18C18.25 12.5 18.5 12.75 18.5 13V15.5Z" fill="#222222"/>
</svg>
