<svg width="24" height="24" viewBox="0 0 24 24" fill="none" xmlns="http://www.w3.org/2000/svg">
<path d="M17.5 6H16V4.375C16 4.1875 15.8125 4 15.625 4H15.375C15.1562 4 15 4.1875 15 4.375V6H9V4.375C9 4.1875 8.8125 4 8.625 4H8.375C8.15625 4 8 4.1875 8 4.375V6H6.5C5.65625 6 5 6.6875 5 7.5V18.5C5 19.3438 5.65625 20 6.5 20H17.5C18.3125 20 19 19.3438 19 18.5V7.5C19 6.6875 18.3125 6 17.5 6ZM6.5 7H17.5C17.75 7 18 7.25 18 7.5V9H6V7.5C6 7.25 6.21875 7 6.5 7ZM17.5 19H6.5C6.21875 19 6 18.7812 6 18.5V10H18V18.5C18 18.7812 17.75 19 17.5 19ZM9.625 14C9.8125 14 10 13.8438 10 13.625V12.375C10 12.1875 9.8125 12 9.625 12H8.375C8.15625 12 8 12.1875 8 12.375V13.625C8 13.8438 8.15625 14 8.375 14H9.625ZM12.625 14C12.8125 14 13 13.8438 13 13.625V12.375C13 12.1875 12.8125 12 12.625 12H11.375C11.1562 12 11 12.1875 11 12.375V13.625C11 13.8438 11.1562 14 11.375 14H12.625ZM15.625 14C15.8125 14 16 13.8438 16 13.625V12.375C16 12.1875 15.8125 12 15.625 12H14.375C14.1562 12 14 12.1875 14 12.375V13.625C14 13.8438 14.1562 14 14.375 14H15.625ZM12.625 17C12.8125 17 13 16.8438 13 16.625V15.375C13 15.1875 12.8125 15 12.625 15H11.375C11.1562 15 11 15.1875 11 15.375V16.625C11 16.8438 11.1562 17 11.375 17H12.625ZM9.625 17C9.8125 17 10 16.8438 10 16.625V15.375C10 15.1875 9.8125 15 9.625 15H8.375C8.15625 15 8 15.1875 8 15.375V16.625C8 16.8438 8.15625 17 8.375 17H9.625ZM15.625 17C15.8125 17 16 16.8438 16 16.625V15.375C16 15.1875 15.8125 15 15.625 15H14.375C14.1562 15 14 15.1875 14 15.375V16.625C14 16.8438 14.1562 17 14.375 17H15.625Z" fill="#222222"/>
</svg>
