<svg width="24" height="24" viewBox="0 0 24 24" fill="none" xmlns="http://www.w3.org/2000/svg">
<path d="M18.75 14C19.0938 14 19.4062 13.7812 19.5 13.4375L20.9688 6.9375C21.0625 6.46875 20.7188 6 20.2188 6H7.96875L7.6875 4.625C7.59375 4.28125 7.28125 4 6.9375 4H3.75C3.3125 4 3 4.34375 3 4.75V5.25C3 5.6875 3.3125 6 3.75 6H5.90625L8.125 16.75C7.5625 17.0625 7.1875 17.6562 7.25 18.375C7.28125 19.25 8 19.9688 8.90625 20C9.90625 20.0625 10.75 19.25 10.75 18.25C10.75 17.7812 10.5312 17.3438 10.2188 17H16.75C16.4375 17.3438 16.2188 17.8125 16.25 18.3125C16.25 19.25 17.0312 20 17.9688 20C18.9375 20.0312 19.75 19.25 19.75 18.25C19.75 17.5625 19.3438 16.9688 18.75 16.6875L18.9062 15.9375C19.0312 15.4688 18.6562 15 18.1875 15H9.8125L9.59375 14H18.75ZM15.75 9.25C16 9.25 16.25 9.5 16.25 9.75V10.25C16.25 10.5312 16 10.75 15.75 10.75H14.25V12C14.25 12.2812 14 12.5 13.75 12.5H13.25C12.9688 12.5 12.75 12.2812 12.75 12V10.75H11.25C10.9688 10.75 10.75 10.5312 10.75 10.25V9.75C10.75 9.5 10.9688 9.25 11.25 9.25H12.75V8C12.75 7.75 12.9688 7.5 13.25 7.5H13.75C14 7.5 14.25 7.75 14.25 8V9.25H15.75Z" fill="#222222"/>
</svg>
