<svg width="24" height="24" viewBox="0 0 24 24" fill="none" xmlns="http://www.w3.org/2000/svg">
<path d="M20.2188 6H7.03125L6.75 4.625C6.6875 4.28125 6.375 4 6.03125 4H3.375C3.15625 4 3 4.1875 3 4.375V4.625C3 4.84375 3.15625 5 3.375 5H5.8125L8 16.6562C7.6875 17.0312 7.5 17.5 7.5 18C7.5 19.125 8.375 20 9.5 20C10.5938 20 11.5 19.125 11.5 18C11.5 17.7188 11.375 17.2812 11.2188 17H15.75C15.5938 17.2812 15.5 17.7188 15.5 18C15.5 19.125 16.375 20 17.5 20C18.5938 20 19.5 19.125 19.5 18C19.5 17.4688 19.25 16.9375 18.875 16.5938C18.8125 16.25 18.5 16 18.1562 16H8.90625L8.53125 14H18.875C19.25 14 19.5312 13.7812 19.625 13.4062L20.9688 6.90625C21.0625 6.4375 20.7188 6 20.2188 6ZM17.5 17C18.0312 17 18.5 17.4688 18.5 18C18.5 18.5625 18.0312 19 17.5 19C16.9375 19 16.5 18.5625 16.5 18C16.5 17.4688 16.9375 17 17.5 17ZM9.5 17C10.0312 17 10.5 17.4688 10.5 18C10.5 18.5625 10.0312 19 9.5 19C8.9375 19 8.5 18.5625 8.5 18C8.5 17.4688 8.9375 17 9.5 17ZM18.6875 13H8.34375L7.21875 7H19.9375L18.6875 13ZM11.5 10.125C11.5 10.3438 11.6562 10.5 11.875 10.5H13V11.625C13 11.8438 13.1562 12 13.375 12H13.625C13.8125 12 14 11.8438 14 11.625V10.5H15.125C15.3125 10.5 15.5 10.3438 15.5 10.125V9.875C15.5 9.6875 15.3125 9.5 15.125 9.5H14V8.375C14 8.1875 13.8125 8 13.625 8H13.375C13.1562 8 13 8.1875 13 8.375V9.5H11.875C11.6562 9.5 11.5 9.6875 11.5 9.875V10.125Z" fill="#222222"/>
</svg>
