<svg width="24" height="24" viewBox="0 0 24 24" fill="none" xmlns="http://www.w3.org/2000/svg">
<path d="M12 4.25C7.71875 4.25 4.25 7.71875 4.25 12C4.25 16.2812 7.71875 19.75 12 19.75C16.2812 19.75 19.75 16.2812 19.75 12C19.75 7.71875 16.2812 4.25 12 4.25ZM13.7812 15.2188L11 13.1875C10.9062 13.125 10.875 13.0312 10.875 12.9062V7.625C10.875 7.4375 11.0312 7.25 11.25 7.25H12.75C12.9375 7.25 13.125 7.4375 13.125 7.625V11.9375L15.0938 13.375C15.25 13.5 15.3125 13.75 15.1875 13.9062L14.2812 15.125C14.1875 15.2812 13.9375 15.3125 13.7812 15.2188Z" fill="#222222"/>
</svg>
