<svg width="24" height="24" viewBox="0 0 24 24" fill="none" xmlns="http://www.w3.org/2000/svg">
<path d="M12 4.25C7.71875 4.25 4.25 7.71875 4.25 12C4.25 16.2812 7.71875 19.75 12 19.75C16.2812 19.75 19.75 16.2812 19.75 12C19.75 7.71875 16.2812 4.25 12 4.25ZM18.75 12C18.75 15.7188 15.7188 18.75 12 18.75C8.28125 18.75 5.25 15.75 5.25 12C5.25 8.3125 8.25 5.25 12 5.25C15.6875 5.25 18.75 8.28125 18.75 12ZM14.0938 14.7812C14.25 14.9062 14.5 14.8438 14.5938 14.6875L14.875 14.3438C15 14.1562 14.9375 13.9375 14.7812 13.8125L12.5938 12.2188V7.625C12.5938 7.4375 12.4062 7.25 12.2188 7.25H11.7812C11.5625 7.25 11.4062 7.4375 11.4062 7.625V12.625C11.4062 12.75 11.4375 12.8438 11.5312 12.9375L14.0938 14.7812Z" fill="#222222"/>
</svg>
