<svg width="24" height="24" viewBox="0 0 24 24" fill="none" xmlns="http://www.w3.org/2000/svg">
<path d="M7.75 9.5H16.25C16.375 9.5 16.5 9.40625 16.5 9.25V8.25C16.5 8.125 16.375 8 16.25 8H16C16 6.71875 15.0312 5.28125 13.8438 4.78125L13 6.5V4.5C13 4.25 12.75 4 12.5 4H11.5C11.2188 4 11 4.25 11 4.5V6.5L10.125 4.78125C8.9375 5.28125 8 6.71875 8 8H7.75C7.59375 8 7.5 8.125 7.5 8.25V9.25C7.5 9.40625 7.59375 9.5 7.75 9.5ZM14.7812 15H14.25C13.6562 15.2812 12.6562 15.5 12 15.5C11.3125 15.5 10.3125 15.2812 9.71875 15H9.1875C6.875 15 5 16.9062 5 19.2188C5 19.6562 5.34375 20 5.78125 20H18.1875C18.625 20 19 19.6562 19 19.2188C19 16.9062 17.0938 15 14.7812 15ZM12 14C14.0312 14 15.6875 12.5 15.9375 10.5H8.03125C8.28125 12.5 9.9375 14 12 14Z" fill="#222222"/>
</svg>
