<svg width="24" height="24" viewBox="0 0 24 24" fill="none" xmlns="http://www.w3.org/2000/svg">
<path d="M14.7812 15C13.875 15 13.4688 15.5 12 15.5C10.5 15.5 10.0938 15 9.1875 15C6.875 15 5 16.9062 5 19.2188C5 19.6562 5.34375 20 5.78125 20H18.1875C18.625 20 19 19.6562 19 19.2188C19 16.9062 17.0938 15 14.7812 15ZM6 19C6.09375 17.375 7.53125 16.0312 9.1875 16C9.8125 16 10.4062 16.5 12 16.5C13.5938 16.5 14.1562 16 14.7812 16C16.4375 16.0312 17.875 17.375 17.9688 19H6ZM7.75 9H8.125C8.0625 9.28125 8 9.71875 8 10C8 12.2188 9.78125 14 12 14C14.1875 14 16 12.2188 16 10C15.9688 9.71875 15.9062 9.28125 15.8438 9H16.25C16.375 9 16.5 8.90625 16.5 8.75V8.25C16.5 8.125 16.375 8 16.25 8H16C16 6.40625 14.9062 5.0625 13.4062 4.65625C13.2812 4.3125 12.875 4.03125 12.5 4H11.5C11.0938 4.03125 10.6875 4.3125 10.5625 4.65625C9.09375 5.0625 8 6.40625 8 8H7.75C7.59375 8 7.5 8.125 7.5 8.25V8.75C7.5 8.90625 7.59375 9 7.75 9ZM13.5 5.71875C14.3125 6.09375 14.9688 7.125 15 8H13.5V5.71875ZM11.5 5H12.5V8H11.5V5ZM9 8C9 7.125 9.65625 6.09375 10.5 5.71875V8H9ZM9.1875 9H14.8125C14.9062 9.28125 14.9688 9.71875 15 10C15 11.6562 13.625 13 12 13C10.3438 13 9 11.6562 9 10C9 9.71875 9.0625 9.28125 9.1875 9Z" fill="#222222"/>
</svg>
