<svg width="24" height="24" viewBox="0 0 24 24" fill="none" xmlns="http://www.w3.org/2000/svg">
<path d="M12 12.5C10.8438 12.5 9.75 11.625 9.53125 10.5H8.03125C8.28125 12.5 9.9375 14 12 14C14.0312 14 15.6875 12.5 15.9375 10.5H14.4375C14.2188 11.625 13.125 12.5 12 12.5ZM14.7812 15C13.875 15 13.4688 15.5 12 15.5C10.5 15.5 10.0938 15 9.1875 15C6.875 15 5 16.9062 5 19.2188C5 19.6562 5.34375 20 5.78125 20H18.1875C18.625 20 19 19.6562 19 19.2188C19 16.9062 17.0938 15 14.7812 15ZM6.5625 18.5C6.875 17.4062 8.03125 16.5312 9.1875 16.5C9.625 16.5 10.375 17 12 17C13.5938 17 14.3438 16.5 14.7812 16.5C15.9375 16.5312 17.0938 17.4062 17.4062 18.5H6.5625ZM7.75 9.5H16.25C16.375 9.5 16.5 9.40625 16.5 9.25V8.25C16.5 8.125 16.375 8 16.25 8H16C16 6.5625 15.0938 5.34375 13.8438 4.8125L13 6.5V4.5C13 4.25 12.75 4 12.5 4H11.5C11.2188 4 11 4.25 11 4.5V6.5L10.125 4.8125C8.875 5.34375 8 6.5625 8 8H7.75C7.59375 8 7.5 8.125 7.5 8.25V9.25C7.5 9.40625 7.59375 9.5 7.75 9.5Z" fill="#222222"/>
</svg>
