<svg width="24" height="24" viewBox="0 0 24 24" fill="none" xmlns="http://www.w3.org/2000/svg">
<path d="M18.5 6H5.5C4.65625 6 4 6.6875 4 7.5V16.5C4 17.3438 4.65625 18 5.5 18H18.5C19.3125 18 20 17.3438 20 16.5V7.5C20 6.6875 19.3125 6 18.5 6ZM5.5 7H18.5C18.75 7 19 7.25 19 7.5V8.8125C18.3125 9.375 17.3125 10.1875 14.2812 12.5938C13.75 13.0312 12.7188 14.0312 12 14C11.25 14.0312 10.2188 13.0312 9.6875 12.5938C6.65625 10.1875 5.65625 9.375 5 8.8125V7.5C5 7.25 5.21875 7 5.5 7ZM18.5 17H5.5C5.21875 17 5 16.7812 5 16.5V10.0938C5.6875 10.6875 6.8125 11.5938 9.0625 13.375C9.71875 13.9062 10.8438 15.0312 12 15C13.125 15.0312 14.25 13.9062 14.9062 13.375C17.1562 11.5938 18.2812 10.6875 19 10.0938V16.5C19 16.7812 18.75 17 18.5 17Z" fill="#222222"/>
</svg>
