<svg width="24" height="24" viewBox="0 0 24 24" fill="none" xmlns="http://www.w3.org/2000/svg">
<path d="M18.5 6H5.5C4.65625 6 4 6.6875 4 7.5V16.5C4 17.3438 4.65625 18 5.5 18H18.5C19.3125 18 20 17.3438 20 16.5V7.5C20 6.6875 19.3125 6 18.5 6ZM18.5 7.5V8.78125C17.7812 9.375 16.6562 10.25 14.2812 12.125C13.75 12.5312 12.7188 13.5312 12 13.5C11.25 13.5312 10.2188 12.5312 9.6875 12.125C7.3125 10.25 6.1875 9.375 5.5 8.78125V7.5H18.5ZM5.5 16.5V10.7188C6.1875 11.2812 7.21875 12.0938 8.75 13.3125C9.4375 13.8438 10.6562 15.0312 12 15C13.3125 15.0312 14.5 13.8438 15.2188 13.3125C16.75 12.0938 17.7812 11.2812 18.5 10.7188V16.5H5.5Z" fill="#222222"/>
</svg>
