<svg width="24" height="24" viewBox="0 0 24 24" fill="none" xmlns="http://www.w3.org/2000/svg">
<path d="M19.75 12C19.75 7.75 16.25 4.25 12 4.25C7.71875 4.25 4.25 7.75 4.25 12C4.25 16.2812 7.71875 19.75 12 19.75C16.25 19.75 19.75 16.2812 19.75 12ZM12 13.5625C12.7812 13.5625 13.4375 14.2188 13.4375 15C13.4375 15.8125 12.7812 16.4375 12 16.4375C11.1875 16.4375 10.5625 15.8125 10.5625 15C10.5625 14.2188 11.1875 13.5625 12 13.5625ZM10.625 8.40625C10.5938 8.1875 10.7812 8 11 8H12.9688C13.1875 8 13.375 8.1875 13.3438 8.40625L13.125 12.6562C13.0938 12.875 12.9375 13 12.75 13H11.2188C11.0312 13 10.875 12.875 10.8438 12.6562L10.625 8.40625Z" fill="#222222"/>
</svg>
