<svg width="24" height="24" viewBox="0 0 24 24" fill="none" xmlns="http://www.w3.org/2000/svg">
<path d="M12 5.25C15.6875 5.25 18.75 8.28125 18.75 12C18.75 15.75 15.7188 18.75 12 18.75C8.25 18.75 5.25 15.75 5.25 12C5.25 8.28125 8.25 5.25 12 5.25ZM12 4.25C7.71875 4.25 4.25 7.75 4.25 12C4.25 16.2812 7.71875 19.75 12 19.75C16.25 19.75 19.75 16.2812 19.75 12C19.75 7.75 16.25 4.25 12 4.25ZM11.625 8C11.4062 8 11.25 8.1875 11.25 8.40625L11.4688 13.6562C11.4688 13.8438 11.6562 14 11.8438 14H12.125C12.3125 14 12.5 13.8438 12.5 13.6562L12.7188 8.40625C12.7188 8.1875 12.5625 8 12.3438 8H11.625ZM12 14.625C11.5 14.625 11.125 15.0312 11.125 15.5C11.125 16 11.5 16.375 12 16.375C12.4688 16.375 12.875 16 12.875 15.5C12.875 15.0312 12.4688 14.625 12 14.625Z" fill="#222222"/>
</svg>
