<svg width="24" height="24" viewBox="0 0 24 24" fill="none" xmlns="http://www.w3.org/2000/svg">
<path d="M17.75 12H17.25C17.0938 12 17 12.125 17 12.25V18.5C17 18.7812 16.75 19 16.5 19H5.5C5.21875 19 5 18.7812 5 18.5V7.5C5 7.25 5.21875 7 5.5 7H11.75C11.875 7 12 6.90625 12 6.75V6.25C12 6.125 11.875 6 11.75 6H5.5C4.65625 6 4 6.6875 4 7.5V18.5C4 19.3438 4.65625 20 5.5 20H16.5C17.3125 20 18 19.3438 18 18.5V12.25C18 12.125 17.875 12 17.75 12ZM19 4H18.9688L15.9688 4.03125C15.0938 4.03125 14.6562 5.09375 15.2812 5.71875L16.375 6.84375L8.09375 15.125C8.03125 15.1875 7.96875 15.2812 7.96875 15.375C7.96875 15.4688 8.03125 15.5938 8.09375 15.6562L8.34375 15.9062C8.40625 15.9688 8.53125 16.0312 8.625 16.0312C8.71875 16.0312 8.84375 15.9688 8.875 15.9062L17.1562 7.625L18.2812 8.71875C18.9062 9.34375 19.9688 8.90625 19.9688 8.03125L20 5.03125V5C20 4.46875 19.5312 4 19 4ZM18.9688 8.03125L15.9688 5.03125L19 5L18.9688 8.03125Z" fill="#222222"/>
</svg>
