<svg width="24" height="24" viewBox="0 0 24 24" fill="none" xmlns="http://www.w3.org/2000/svg">
<path d="M17.5 13H17C16.7188 13 16.5 13.25 16.5 13.5V18.3125C16.5 18.4375 16.4062 18.5 16.3125 18.5H5.6875C5.5625 18.5 5.5 18.4375 5.5 18.3125V7.6875C5.5 7.59375 5.5625 7.5 5.6875 7.5H10.5C10.75 7.5 11 7.28125 11 7V6.5C11 6.25 10.75 6 10.5 6H5.5C4.65625 6 4 6.6875 4 7.5V18.5C4 19.3438 4.65625 20 5.5 20H16.5C17.3125 20 18 19.3438 18 18.5V13.5C18 13.25 17.75 13 17.5 13ZM19.625 4H15.375C15.1562 4.03125 15 4.1875 15 4.375C15 4.46875 15.0312 4.59375 15.0938 4.65625L16.5938 6.15625L8.09375 14.6562C8.03125 14.7188 7.96875 14.8438 7.96875 14.9375C7.96875 15.0312 8.03125 15.125 8.09375 15.1875L8.8125 15.9062C8.875 15.9688 8.96875 16.0312 9.0625 16.0312C9.15625 16.0312 9.28125 15.9688 9.34375 15.9062L17.8438 7.40625L19.3438 8.90625C19.4062 8.96875 19.5312 9 19.625 9C19.8125 9 19.9688 8.84375 20 8.625V4.375C20 4.1875 19.8125 4 19.625 4Z" fill="#222222"/>
</svg>
