<svg width="24" height="24" viewBox="0 0 24 24" fill="none" xmlns="http://www.w3.org/2000/svg">
<path d="M17.5 14H16.5C16.2188 14 16 14.25 16 14.5V18H6V8H10.5C10.75 8 11 7.78125 11 7.5V6.5C11 6.25 10.75 6 10.5 6H5.5C4.65625 6 4 6.6875 4 7.5V18.5C4 19.3438 4.65625 20 5.5 20H16.5C17.3125 20 18 19.3438 18 18.5V14.5C18 14.25 17.75 14 17.5 14ZM19.25 4H15.25C14.5625 4 14.2188 4.8125 14.7188 5.28125L15.8125 6.40625L8.21875 14.0312C8.09375 14.1562 7.96875 14.375 7.96875 14.5625C7.96875 14.7188 8.09375 14.9688 8.21875 15.0938L8.90625 15.7812C9.03125 15.9062 9.28125 16.0312 9.4375 16.0312C9.625 16.0312 9.84375 15.9062 9.96875 15.7812L17.5938 8.1875L18.7188 9.28125C19.1875 9.75 20 9.4375 20 8.75V4.75C20 4.34375 19.6562 4 19.25 4Z" fill="#222222"/>
</svg>
