<svg width="24" height="24" viewBox="0 0 24 24" fill="none" xmlns="http://www.w3.org/2000/svg">
<path d="M20.875 11.5625C19.1875 8.25 15.8125 6 12 6C8.15625 6 4.78125 8.25 3.09375 11.5625C3.03125 11.6875 3 11.875 3 12.0312C3 12.1562 3.03125 12.3438 3.09375 12.4688C4.78125 15.7812 8.15625 18 12 18C15.8125 18 19.1875 15.7812 20.875 12.4688C20.9375 12.3438 20.9688 12.1562 20.9688 12C20.9688 11.875 20.9375 11.6875 20.875 11.5625ZM12 16.5C9.5 16.5 7.5 14.5 7.5 12C7.5 9.53125 9.5 7.5 12 7.5C14.4688 7.5 16.5 9.53125 16.5 12V12.0312C16.5 14.5 14.4688 16.5 12 16.5ZM12 9C11.75 9.03125 11.4062 9.0625 11.1875 9.125C11.3438 9.34375 11.5 9.75 11.5 10.0312C11.5 10.8438 10.8125 11.5 10 11.5C9.71875 11.5 9.3125 11.375 9.09375 11.2188C9.03125 11.4375 9 11.7812 9 12C9 13.6562 10.3438 15 12 15C13.6562 15 15 13.6562 15 12C15 10.3438 13.6562 9 12 9Z" fill="#222222"/>
</svg>
