<svg width="24" height="24" viewBox="0 0 24 24" fill="none" xmlns="http://www.w3.org/2000/svg">
<path d="M21.9062 19.1875L2.71875 4.0625C2.65625 4.03125 2.59375 4 2.5625 4C2.46875 4 2.40625 4.0625 2.34375 4.09375L2.03125 4.5C2 4.53125 2 4.59375 2 4.65625C2 4.71875 2.03125 4.8125 2.09375 4.84375L21.2812 19.9688C21.3125 20 21.375 20.0312 21.4375 20.0312C21.5 20.0312 21.5625 19.9688 21.625 19.9062L21.9375 19.5312C21.9688 19.5 22 19.4375 22 19.375C22 19.3125 21.9375 19.2188 21.9062 19.1875ZM12 7C14.1875 7.03125 15.9688 8.8125 16 11C16 11.6875 15.8125 12.3125 15.5 12.875L16.3125 13.5C16.7188 12.7812 17 11.9375 17 11C17 9.875 16.5938 8.8125 15.9375 7.96875C17.4062 8.71875 19.2188 10.5312 20 12C19.5312 12.875 18.5938 14.0938 17.875 14.75L18.6562 15.375C19.5625 14.5312 20.3125 13.5625 20.875 12.4688C20.9375 12.3438 21 12.1562 21 12C21 11.875 20.9375 11.6875 20.875 11.5625C19.1875 8.25 15.8125 6 12 6H11.9688C10.8125 6 9 6.40625 7.90625 6.90625L9.34375 8.03125C10.0625 7.40625 10.9688 7 12 7ZM13.875 11.5938C13.9375 11.4375 14 11.1562 14 11C14 9.90625 13.0938 9 12 9C11.9688 9 11.9375 9.03125 11.9062 9.03125C11.9375 9.15625 12 9.375 12 9.53125C12 9.65625 11.9375 9.90625 11.875 10.0312L13.875 11.5938ZM7.09375 10.0625C7.03125 10.3125 7 10.75 7 11C6.96875 11.0312 6.96875 11.0312 6.96875 11.0312C6.96875 13.7812 9.21875 16.0312 11.9688 16.0312C12.5625 16.0312 13.5 15.8125 14.0625 15.5625L13.125 14.8125C12.75 14.9375 12.375 15 12 15C9.78125 15 8 13.2188 8 11C8 10.9375 8 10.875 8 10.7812L7.09375 10.0625ZM12 17C8.625 17 5.5625 15.0938 4 12C4.53125 10.9375 5.28125 10.0625 6.125 9.3125L5.3125 8.65625C4.40625 9.5 3.65625 10.4688 3.09375 11.5625C3.03125 11.6875 3 11.875 3 12.0312C3 12.1562 3.03125 12.3438 3.09375 12.4688C4.78125 15.7812 8.15625 18 12 18C13.1562 18 14.9688 17.625 16.0625 17.125L15.125 16.4062C14.1562 16.7812 13.0938 17 12 17Z" fill="#222222"/>
</svg>
