<svg width="24" height="24" viewBox="0 0 24 24" fill="none" xmlns="http://www.w3.org/2000/svg">
<path d="M12 13C13.0938 13 14 12.125 14 11C14 9.90625 13.0938 9 12 9C11.9688 9 11.9375 9.03125 11.9062 9.03125C11.9375 9.15625 12 9.375 12 9.53125C12 10.3438 11.3125 11.0312 10.5 11.0312C10.3438 11.0312 10.125 10.9688 10 10.9375C10 10.9688 10 11 10 11C10 12.125 10.875 13 12 13ZM20.875 11.5625C19.1875 8.25 15.8125 6 12 6C8.15625 6 4.78125 8.25 3.09375 11.5625C3.03125 11.6875 3 11.875 3 12.0312C3 12.1562 3.03125 12.3438 3.09375 12.4688C4.78125 15.7812 8.15625 18 12 18C15.8125 18 19.1875 15.7812 20.875 12.4688C20.9375 12.3438 20.9688 12.1562 20.9688 12C20.9688 11.875 20.9375 11.6875 20.875 11.5625ZM12 7C14.1875 7 16 8.8125 16 11C16 13.2188 14.1875 15 12 15C9.78125 15 8 13.2188 8 11C8 8.8125 9.78125 7.03125 12 7ZM12 17C8.625 17 5.5625 15.0938 4 12C4.75 10.5312 6.5625 8.71875 8.03125 7.96875C7.375 8.8125 7 9.875 7 11C7 13.7812 9.21875 16 12 16C14.75 16 17 13.7812 17 11C17 9.875 16.5938 8.8125 15.9375 7.96875C17.4062 8.71875 19.2188 10.5312 20 12C18.4062 15.0938 15.3438 17 12 17Z" fill="#222222"/>
</svg>
