<svg width="24" height="24" viewBox="0 0 24 24" fill="none" xmlns="http://www.w3.org/2000/svg">
<path d="M12 16.5C9.625 16.5 7.6875 14.6875 7.53125 12.3438L4.25 9.8125C3.8125 10.375 3.40625 10.9375 3.09375 11.5625C3.03125 11.6875 3 11.875 3 12.0312C3 12.1562 3.03125 12.3438 3.09375 12.4688C4.78125 15.7812 8.15625 18 12 18C12.8125 18 13.625 17.875 14.4062 17.6875L12.8125 16.4375C12.5625 16.4688 12.2188 16.5 12 16.5ZM21.7812 18.3438L18.3438 15.6562C19.2188 14.9062 20.3438 13.5 20.875 12.4688C20.9375 12.3438 20.9688 12.1562 20.9688 12C20.9688 11.875 20.9375 11.6875 20.875 11.5625C19.1875 8.25 15.8125 6 12 6C10.625 6.03125 8.5625 6.53125 7.375 7.1875L3.40625 4.125C3.34375 4.0625 3.1875 4 3.09375 4C2.96875 4 2.78125 4.09375 2.71875 4.21875L2.09375 5C2.03125 5.0625 2 5.21875 2 5.3125C2 5.4375 2.0625 5.625 2.1875 5.6875L20.5625 19.9062C20.625 19.9688 20.7812 20.0312 20.875 20.0312C21 20.0312 21.1875 19.9375 21.2812 19.8125L21.875 19.0312C21.9375 18.9688 22 18.8125 22 18.7188C22 18.5938 21.9062 18.4062 21.7812 18.3438ZM16.0625 13.9062L14.8125 12.9375C14.9062 12.6875 14.9688 12.2812 15 12C15 12 15 12 15 11.9688C15 10.3438 13.6562 9 12.0312 9C11.7812 9 11.4062 9.0625 11.1875 9.125C11.3438 9.34375 11.4688 9.75 11.5 10C11.4688 10.0938 11.4688 10.25 11.4375 10.3125L9.125 8.5625C9.8125 7.96875 11.0938 7.53125 12 7.5C14.4688 7.5 16.5 9.53125 16.5 12C16.5 12.6875 16.3125 13.3125 16.0625 13.9062Z" fill="#222222"/>
</svg>
