<svg width="24" height="24" viewBox="0 0 24 24" fill="none" xmlns="http://www.w3.org/2000/svg">
<path d="M17.5312 7.0625L14.9375 4.46875C14.6562 4.1875 14.25 4 13.875 4H7.46875C6.65625 4.03125 6 4.6875 6 5.53125V18.5312C6 19.3438 6.65625 20 7.46875 20H16.5C17.3125 20 18 19.3438 18 18.5312V8.125C18 7.75 17.8125 7.34375 17.5312 7.0625ZM14 5.03125C14.0625 5.0625 14.1562 5.09375 14.2188 5.15625L16.8438 7.78125C16.9062 7.84375 16.9375 7.9375 16.9688 8.03125H14V5.03125ZM17 18.5312C17 18.7812 16.75 19.0312 16.5 19.0312H7.46875C7.21875 19.0312 6.96875 18.7812 6.96875 18.5312V5.53125C6.96875 5.25 7.21875 5 7.46875 5H13V8.28125C13 8.6875 13.3125 9 13.75 9H17V18.5312ZM12.5 10.75C12.5 10.625 12.375 10.5 12.25 10.5H11.75C11.5938 10.5 11.5 10.625 11.5 10.75V13.5312H9.84375C9.5 13.5312 9.1875 13.7188 9.0625 14.0312C8.90625 14.375 8.96875 14.75 9.21875 15L11.3438 17.25C11.5312 17.4062 11.75 17.5312 11.9688 17.5312C12.2188 17.5312 12.4375 17.4062 12.625 17.25L14.75 15C15 14.75 15.0625 14.375 14.9062 14.0312C14.7812 13.7188 14.4688 13.5312 14.125 13.5312H12.5V10.75ZM13.8125 14.5312L12 16.4688L10.1562 14.5312H13.8125Z" fill="#222222"/>
</svg>
