<svg width="24" height="24" viewBox="0 0 24 24" fill="none" xmlns="http://www.w3.org/2000/svg">
<path d="M18 7.8125C18 7.65625 17.875 7.40625 17.75 7.28125L14.7188 4.25C14.5938 4.125 14.3438 4 14.1875 4H14V8H18V7.8125ZM13.75 9C13.3125 9 13 8.6875 13 8.25V4H6.75C6.3125 4 6 4.34375 6 4.75V19.25C6 19.6875 6.3125 20 6.75 20H17.25C17.6562 20 18 19.6875 18 19.25V9H13.75ZM9.5 9.5C10.3438 9.5 11 10.1875 11 11C11 11.8438 10.3438 12.5 9.5 12.5C8.6875 12.5 8 11.8438 8 11C8 10.1875 8.6875 9.5 9.5 9.5ZM16 17H8L8.03125 15.5L9.25 14.25C9.40625 14.125 9.625 14.125 9.78125 14.2812L11 15.5L14.25 12.2812C14.375 12.125 14.625 12.125 14.7812 12.2812L16 13.5V17Z" fill="#222222"/>
</svg>
