<svg width="24" height="24" viewBox="0 0 24 24" fill="none" xmlns="http://www.w3.org/2000/svg">
<path d="M17.5312 7.0625L14.9375 4.4375C14.6562 4.15625 14.25 4 13.875 4H7.5C6.65625 4 6 4.6875 6 5.5V18.5C6 19.3438 6.65625 20 7.5 20H16.5C17.3125 20 18 19.3438 18 18.5V8.125C18 7.75 17.8125 7.34375 17.5312 7.0625ZM16.375 8H14V5.625L16.375 8ZM7.5 18.5V5.5H12.5V8.75C12.5 9.1875 12.8125 9.5 13.25 9.5H16.5V18.5H7.5ZM15.3125 14.0312C14.9375 13.6562 13.8438 13.75 13.2812 13.8125C12.75 13.5 12.4062 13.0312 12.1562 12.375C12.25 11.875 12.4688 11.0938 12.3125 10.625C12.1875 9.8125 11.125 9.875 10.9688 10.4375C10.8438 10.9375 10.9688 11.6562 11.1875 12.5312C10.875 13.2812 10.4062 14.2812 10.0938 14.875C9.46875 15.1875 8.625 15.6875 8.5 16.3125C8.40625 16.8125 9.3125 18.0312 10.875 15.3438C11.5625 15.0938 12.3438 14.8125 13 14.6875C13.5938 15.0312 14.2812 15.2188 14.75 15.2188C15.5625 15.2188 15.625 14.3438 15.3125 14.0312ZM9.125 16.4688C9.28125 16.0312 9.875 15.5312 10.0625 15.375C9.46875 16.3125 9.125 16.4688 9.125 16.4688ZM11.6562 10.5C11.9062 10.5 11.875 11.5 11.7188 11.7812C11.5938 11.3438 11.5938 10.5 11.6562 10.5ZM10.9062 14.7812C11.2188 14.25 11.4688 13.625 11.6875 13.0625C11.9375 13.5312 12.25 13.9062 12.625 14.1562C11.9688 14.3125 11.4062 14.5625 10.9062 14.7812ZM15 14.625C15 14.625 14.8438 14.8125 13.8438 14.375C14.9375 14.2812 15.125 14.5312 15 14.625Z" fill="#222222"/>
</svg>
