<svg width="24" height="24" viewBox="0 0 24 24" fill="none" xmlns="http://www.w3.org/2000/svg">
<path d="M12.75 11.4062C12.75 11.1875 12.5625 11.0312 12.375 11.0312H11.625C11.4062 11.0312 11.25 11.1875 11.25 11.4062V14.0312H9.71875C9.375 14.0312 9.21875 14.4375 9.4375 14.6562L11.6875 16.9062C11.8438 17.0625 12.125 17.0625 12.2812 16.9062L14.5312 14.6562C14.75 14.4375 14.5938 14.0312 14.25 14.0312H12.75V11.4062ZM17.5312 7.0625L14.9062 4.46875C14.625 4.1875 14.25 4 13.875 4H7.46875C6.65625 4.03125 6 4.6875 6 5.53125V18.5312C6 19.3438 6.65625 20 7.46875 20H16.4688C17.3125 20 18 19.3438 18 18.5312V8.125C18 7.75 17.8125 7.34375 17.5312 7.0625ZM13.9688 5.625L16.375 8.03125H13.9688V5.625ZM16.5 18.5312H7.46875V5.53125H12.4688V8.78125C12.4688 9.1875 12.8125 9.53125 13.2188 9.53125H16.5V18.5312Z" fill="#222222"/>
</svg>
