<svg width="24" height="24" viewBox="0 0 24 24" fill="none" xmlns="http://www.w3.org/2000/svg">
<path d="M17.5312 7.0625L14.9062 4.46875C14.625 4.1875 14.25 4 13.875 4H7.46875C6.65625 4.03125 6 4.6875 6 5.53125V18.5312C6 19.3438 6.65625 20 7.46875 20H16.4688C17.3125 20 18 19.3438 18 18.5312V8.125C18 7.75 17.8125 7.34375 17.5312 7.0625ZM13.9688 5.625L16.375 8.03125H13.9688V5.625ZM16.5 18.5312H7.46875V5.53125H12.4688V8.78125C12.4688 9.1875 12.8125 9.53125 13.2188 9.53125H16.5V18.5312ZM11.6875 11.125L9.4375 13.375C9.21875 13.625 9.375 14.0312 9.71875 14.0312H11.25V16.6562C11.25 16.8438 11.4062 17.0312 11.625 17.0312H12.375C12.5625 17.0312 12.75 16.8438 12.75 16.6562V14.0312H14.25C14.5938 14.0312 14.75 13.625 14.5312 13.375L12.2812 11.125C12.125 10.9688 11.8438 10.9688 11.6875 11.125Z" fill="#222222"/>
</svg>
