<svg width="24" height="24" viewBox="0 0 24 24" fill="none" xmlns="http://www.w3.org/2000/svg">
<path d="M13 8.25V4H6.75C6.3125 4 6 4.34375 6 4.75V19.25C6 19.6875 6.3125 20 6.75 20H17.25C17.6562 20 18 19.6875 18 19.25V9H13.75C13.3125 9 13 8.6875 13 8.25ZM14.875 11.5938L13 14.5L14.875 17.4375C15.0312 17.6875 14.8438 18 14.5625 18H13.4688C13.3125 18 13.1875 17.9375 13.125 17.8125C12.5 16.6875 12 15.6562 12 15.6562C11.7812 16.125 11.6875 16.2812 10.8438 17.8125C10.7812 17.9375 10.6562 18.0312 10.5 18.0312H9.4375C9.125 18.0312 8.9375 17.6875 9.09375 17.4375L11 14.5312L9.09375 11.5938C8.9375 11.3438 9.125 11.0312 9.4375 11.0312H10.5C10.6562 11.0312 10.7812 11.0938 10.8438 11.2188C11.6562 12.75 11.4688 12.25 12 13.3438C12 13.3438 12.1875 13 13.125 11.2188C13.1875 11.0938 13.3125 11.0312 13.4688 11.0312H14.5625C14.8438 11 15.0312 11.3438 14.875 11.5938ZM18 7.8125C18 7.625 17.9062 7.4375 17.7812 7.28125L14.7188 4.21875C14.5625 4.09375 14.375 4 14.1875 4H14V8H18V7.8125Z" fill="#222222"/>
</svg>
