<svg width="24" height="24" viewBox="0 0 24 24" fill="none" xmlns="http://www.w3.org/2000/svg">
<path d="M10.9688 14.5L9.71875 13.2812C9.5625 13.125 9.34375 13.125 9.1875 13.2812L7.96875 14.5V18H15.9688V13.5L14.2188 11.7812C14.0625 11.625 13.8438 11.625 13.6875 11.7812L10.9688 14.5ZM13.9688 12.9375L14.9688 13.9375V17H8.96875V14.9062L9.46875 14.4375L10.9688 15.9375C11.5938 15.2812 13.375 13.5 13.9688 12.9375ZM9.96875 12C11.0625 12 11.9688 11.125 11.9688 10C11.9688 8.90625 11.0625 8 9.96875 8C8.84375 8 7.96875 8.90625 7.96875 10C7.96875 11.125 8.84375 12 9.96875 12ZM9.96875 9C10.5 9 10.9688 9.46875 10.9688 10C10.9688 10.5625 10.5 11 9.96875 11C9.40625 11 8.96875 10.5625 8.96875 10C8.96875 9.46875 9.40625 9 9.96875 9ZM17.5312 7.0625L14.9375 4.4375C14.6562 4.15625 14.25 4 13.875 4H7.5C6.65625 4 6 4.6875 6 5.5V18.5C6 19.3438 6.65625 20 7.5 20H16.5C17.3125 20 18 19.3438 18 18.5V8.125C18 7.75 17.8125 7.34375 17.5312 7.0625ZM14 5.03125C14.0625 5.0625 14.1562 5.09375 14.2188 5.15625L16.8438 7.78125C16.9062 7.84375 16.9375 7.9375 16.9688 8H14V5.03125ZM17 18.5C17 18.7812 16.75 19 16.5 19H7.5C7.21875 19 7 18.7812 7 18.5V5.5C7 5.25 7.21875 5 7.5 5H13V8.25C13 8.6875 13.3125 9 13.75 9H17V18.5Z" fill="#222222"/>
</svg>
