<svg width="24" height="24" viewBox="0 0 24 24" fill="none" xmlns="http://www.w3.org/2000/svg">
<path d="M13 8.25V4H6.75C6.3125 4 6 4.34375 6 4.75V19.25C6 19.6875 6.3125 20 6.75 20H17.25C17.6562 20 18 19.6875 18 19.25V9H13.75C13.3125 9 13 8.6875 13 8.25ZM14.7812 12H15.5312C15.75 12 15.9375 12.25 15.875 12.4688L14.6875 17.7188C14.6562 17.9062 14.5 18 14.3438 18H13.1562C12.9688 18 12.8125 17.9062 12.7812 17.7188C11.9688 14.5 12.125 15.1875 11.9688 14.2812C11.9375 14.7188 11.875 14.8125 11.1562 17.7188C11.125 17.9062 10.9688 18 10.8125 18H9.65625C9.46875 18 9.3125 17.9062 9.28125 17.7188L8.09375 12.4688C8.03125 12.25 8.21875 12 8.46875 12H9.21875C9.40625 12 9.5625 12.125 9.59375 12.3125C10.0938 14.75 10.2188 15.75 10.25 16.125C10.3125 15.8125 10.4688 15.125 11.1562 12.3125C11.2188 12.125 11.375 12.0312 11.5312 12.0312H12.4375C12.625 12.0312 12.7812 12.125 12.8125 12.3125C13.5625 15.4375 13.7188 16.1875 13.75 16.3438C13.7188 16 13.6562 15.7812 14.4062 12.3125C14.4375 12.125 14.5938 12 14.7812 12ZM18 7.8125C18 7.625 17.9062 7.4375 17.7812 7.28125L14.7188 4.21875C14.5625 4.09375 14.375 4 14.1875 4H14V8H18V7.8125Z" fill="#222222"/>
</svg>
