<svg width="24" height="24" viewBox="0 0 24 24" fill="none" xmlns="http://www.w3.org/2000/svg">
<path d="M17.5312 7.0625L14.9375 4.4375C14.6562 4.15625 14.25 4 13.875 4H7.5C6.65625 4 6 4.6875 6 5.5V18.5C6 19.3438 6.65625 20 7.5 20H16.5C17.3125 20 18 19.3438 18 18.5V8.125C18 7.75 17.8125 7.34375 17.5312 7.0625ZM16.8438 7.78125C16.9062 7.84375 16.9375 7.9375 16.9688 8H14V5.03125C14.0625 5.0625 14.1562 5.09375 14.2188 5.15625L16.8438 7.78125ZM16.5 19H7.5C7.21875 19 7 18.7812 7 18.5V5.5C7 5.25 7.21875 5 7.5 5H13V8.25C13 8.6875 13.3125 9 13.75 9H17V18.5C17 18.7812 16.75 19 16.5 19ZM14.8125 11.3125C14.5938 12.3438 13.7812 15.6875 13.7812 16C13.5938 15.0938 13.75 16.0625 12.4688 11.2812C12.4062 11.125 12.2812 11 12.0938 11H11.9062C11.7188 11 11.5938 11.125 11.5312 11.2812C10.3438 15.75 10.375 15.6875 10.3125 16.125C10.1875 15.375 10.375 16.0312 9.21875 11.3125C9.1875 11.125 9.03125 11 8.875 11H8.625C8.40625 11 8.21875 11.25 8.28125 11.4688C8.5625 12.6562 9.34375 15.7812 9.59375 16.7188C9.625 16.9062 9.78125 17 9.96875 17H10.5C10.6562 17 10.8125 16.9062 10.8438 16.75C11.9062 12.75 11.9062 12.875 12 12.2812C12.1875 13.25 12 12.5 13.1562 16.75C13.1875 16.9062 13.3438 17 13.5 17H13.9375C14.125 17 14.375 16.9062 14.4062 16.7188L15.75 11.4688C15.8125 11.25 15.625 11 15.4062 11H15.1875C15 11 14.8438 11.125 14.8125 11.3125Z" fill="#222222"/>
</svg>
