<svg width="24" height="24" viewBox="0 0 24 24" fill="none" xmlns="http://www.w3.org/2000/svg">
<path d="M13 8.25V4H6.75C6.3125 4 6 4.34375 6 4.75V19.25C6 19.6875 6.3125 20 6.75 20H17.25C17.6562 20 18 19.6875 18 19.25V9H13.75C13.3125 9 13 8.6875 13 8.25ZM15.375 14.875L12.375 17.875C12.1562 18.0625 11.8125 18.0625 11.5938 17.875L8.59375 14.875C8.28125 14.5625 8.5 14 8.9375 14H11V11.5C11 11.25 11.2188 11 11.5 11H12.5C12.75 11 13 11.25 13 11.5V14H15.0312C15.4688 14 15.6875 14.5625 15.375 14.875ZM17.7812 7.28125L14.7188 4.21875C14.5625 4.09375 14.375 4 14.1875 4H14V8H18V7.8125C18 7.625 17.9062 7.4375 17.7812 7.28125Z" fill="#222222"/>
</svg>
