<svg width="24" height="24" viewBox="0 0 24 24" fill="none" xmlns="http://www.w3.org/2000/svg">
<path d="M17.5312 7.0625L14.9375 4.4375C14.6562 4.15625 14.25 4 13.875 4H7.5C6.65625 4 6 4.6875 6 5.5V18.5C6 19.3438 6.65625 20 7.5 20H16.5C17.3125 20 18 19.3438 18 18.5V8.125C18 7.75 17.8125 7.34375 17.5312 7.0625ZM16.8438 7.78125C16.9062 7.84375 16.9375 7.9375 16.9688 8H14V5.03125C14.0625 5.0625 14.1562 5.09375 14.2188 5.15625L16.8438 7.78125ZM16.5 19H7.5C7.21875 19 7 18.7812 7 18.5V5.5C7 5.25 7.21875 5 7.5 5H13V8.25C13 8.6875 13.3125 9 13.75 9H17V18.5C17 18.7812 16.75 19 16.5 19ZM12.5938 13.625L14.1875 11.0938C14.3438 10.8438 14.1562 10.5 13.8438 10.5H13.7188C13.5938 10.5 13.4688 10.5938 13.4062 10.6875C12.4375 12.1875 12.2812 12.3438 12 13C11.4375 12 11.7188 12.5 10.5625 10.6875C10.5 10.5938 10.375 10.5 10.25 10.5H10.125C9.8125 10.5 9.625 10.8438 9.78125 11.0938L11.4062 13.625L9.53125 16.4375C9.375 16.6875 9.5625 17 9.875 17H9.96875C10.0938 17 10.2188 16.9375 10.2812 16.8438C11.4375 15.0312 11.6875 14.875 12 14.25C12.9688 16.0312 13.375 16.375 13.6875 16.8438C13.75 16.9375 13.875 17 14 17H14.125C14.4062 17 14.5938 16.6875 14.4375 16.4375L12.5938 13.625Z" fill="#222222"/>
</svg>
