<svg width="24" height="24" viewBox="0 0 24 24" fill="none" xmlns="http://www.w3.org/2000/svg">
<path d="M13 8.25V4H6.75C6.3125 4 6 4.34375 6 4.75V19.25C6 19.6875 6.3125 20 6.75 20H17.25C17.6562 20 18 19.6875 18 19.25V9H13.75C13.3125 9 13 8.6875 13 8.25ZM15.0312 15.0312H13V17.5312C13 17.7812 12.75 18.0312 12.5 18.0312H11.5C11.2188 18.0312 11 17.7812 11 17.5312V15.0312H8.9375C8.5 15.0312 8.28125 14.4688 8.59375 14.1562L11.5938 11.1562C11.8125 10.9688 12.1562 10.9688 12.375 11.1562L15.375 14.1562C15.6875 14.4688 15.4688 15.0312 15.0312 15.0312ZM17.7812 7.28125L14.7188 4.21875C14.5625 4.09375 14.375 4 14.1875 4H14V8H18V7.8125C18 7.625 17.9062 7.4375 17.7812 7.28125Z" fill="#222222"/>
</svg>
