<svg width="24" height="24" viewBox="0 0 24 24" fill="none" xmlns="http://www.w3.org/2000/svg">
<path d="M17.5312 7.0625L14.9375 4.4375C14.6562 4.15625 14.25 4 13.875 4H7.5C6.65625 4 6 4.6875 6 5.5V18.5C6 19.3438 6.65625 20 7.5 20H16.5C17.3125 20 18 19.3438 18 18.5V8.125C18 7.75 17.8125 7.34375 17.5312 7.0625ZM16.8438 7.78125C16.9062 7.84375 16.9375 7.9375 16.9688 8H14V5.03125C14.0625 5.0625 14.1562 5.09375 14.2188 5.15625L16.8438 7.78125ZM16.5 19H7.5C7.21875 19 7 18.7812 7 18.5V5.5C7 5.25 7.21875 5 7.5 5H13V8.25C13 8.6875 13.3125 9 13.75 9H17V18.5C17 18.7812 16.75 19 16.5 19Z" fill="#222222"/>
</svg>
