<svg width="24" height="24" viewBox="0 0 24 24" fill="none" xmlns="http://www.w3.org/2000/svg">
<path d="M17.5312 7.0625L14.9375 4.46875C14.6562 4.1875 14.25 4 13.875 4H7.46875C6.65625 4.03125 6 4.6875 6 5.53125V18.5312C6 19.3438 6.65625 20 7.46875 20H16.5C17.3125 20 18 19.3438 18 18.5312V8.125C18 7.75 17.8125 7.34375 17.5312 7.0625ZM14 5.03125C14.0625 5.0625 14.1562 5.09375 14.2188 5.15625L16.8438 7.78125C16.9062 7.84375 16.9375 7.9375 16.9688 8.03125H14V5.03125ZM17 18.5312C17 18.7812 16.75 19.0312 16.5 19.0312H7.46875C7.21875 19.0312 6.96875 18.7812 6.96875 18.5312V5.53125C6.96875 5.25 7.21875 5 7.46875 5H13V8.28125C13 8.6875 13.3125 9 13.75 9H17V18.5312ZM11.3438 10.7812L9.21875 13.0312C8.96875 13.2812 8.90625 13.6562 9.0625 14C9.1875 14.3125 9.5 14.5 9.84375 14.5H11.5V17.25C11.5 17.4062 11.5938 17.5 11.75 17.5H12.25C12.375 17.5 12.5 17.4062 12.5 17.25V14.5H14.125C14.4688 14.5 14.7812 14.3125 14.9062 14C15.0625 13.6562 15 13.2812 14.75 13.0312L12.625 10.7812C12.2812 10.4375 11.6875 10.4375 11.3438 10.7812ZM10.1562 13.5L12 11.5625L13.8125 13.5H10.1562Z" fill="#222222"/>
</svg>
