<svg width="24" height="24" viewBox="0 0 24 24" fill="none" xmlns="http://www.w3.org/2000/svg">
<path d="M17.5312 7.0625L14.9375 4.4375C14.6562 4.15625 14.25 4 13.875 4H7.5C6.65625 4 6 4.6875 6 5.5V18.5C6 19.3438 6.65625 20 7.5 20H16.5C17.3125 20 18 19.3438 18 18.5V8.125C18 7.75 17.8125 7.34375 17.5312 7.0625ZM16.8438 7.78125C16.9062 7.84375 16.9375 7.9375 16.9688 8H14V5.03125C14.0625 5.0625 14.1562 5.09375 14.2188 5.15625L16.8438 7.78125ZM16.5 19H7.5C7.21875 19 7 18.7812 7 18.5V5.5C7 5.25 7.21875 5 7.5 5H13V8.25C13 8.6875 13.3125 9 13.75 9H17V18.5C17 18.7812 16.75 19 16.5 19ZM15.8125 13.6562C15.375 13.25 14.0938 13.375 13.5 13.4688C12.8438 13.0625 12.4062 12.5 12.0938 11.6875C12.2188 11.125 12.4688 10.2188 12.2812 9.65625C12.1562 8.78125 11.0312 8.875 10.9062 9.4375C10.75 10.0312 10.875 10.8438 11.1562 11.875C10.7812 12.75 10.2188 13.9688 9.84375 14.6562C9.1875 14.9688 8.15625 15.5625 8 16.2812C7.90625 16.8125 8.71875 17.5 9.65625 16.4688C9.9375 16.1875 10.25 15.7188 10.625 15.0625C11.4688 14.7812 12.4062 14.4375 13.1875 14.3125C13.875 14.6875 14.6875 14.9375 15.2188 14.9375C16.0938 14.9375 16.125 14 15.8125 13.6562ZM8.625 16.4375C8.8125 15.9375 9.53125 15.375 9.75 15.1562C9.0625 16.2812 8.625 16.4688 8.625 16.4375ZM11.625 9.5C11.875 9.5 11.8438 10.6562 11.6875 11C11.5 10.4688 11.5312 9.5 11.625 9.5ZM10.7188 14.4688C11.0625 13.8438 11.375 13.125 11.625 12.5C11.9375 13.0312 12.3125 13.4688 12.7188 13.7812C11.9688 13.9375 11.3125 14.25 10.7188 14.4688ZM15.5312 14.2812C15.5312 14.2812 15.3438 14.5 14.1562 14C15.4375 13.9062 15.6562 14.2188 15.5312 14.2812Z" fill="#222222"/>
</svg>
