<svg width="24" height="24" viewBox="0 0 24 24" fill="none" xmlns="http://www.w3.org/2000/svg">
<path d="M17.5312 7.0625L14.9375 4.4375C14.6562 4.15625 14.25 4 13.875 4H7.5C6.65625 4 6 4.6875 6 5.5V18.5C6 19.3438 6.65625 20 7.5 20H16.5C17.3125 20 18 19.3438 18 18.5V8.125C18 7.75 17.8125 7.34375 17.5312 7.0625ZM16.375 8H14V5.625L16.375 8ZM7.5 18.5V5.5H12.5V8.75C12.5 9.1875 12.8125 9.5 13.25 9.5H16.5V18.5H7.5ZM14.125 11H13.2188C13.0625 11 12.9375 11.0938 12.875 11.2188C12.3125 12.25 12.1875 12.5312 12 13C11.5625 12.0938 11.7812 12.4688 11.0938 11.2188C11.0312 11.0938 10.9062 11 10.75 11H9.875C9.5625 11 9.40625 11.3125 9.53125 11.5625L10.9688 14L9.53125 16.4375C9.375 16.6875 9.5625 17 9.875 17H10.75C10.9062 17 11.0312 16.9375 11.0938 16.8125C11.7812 15.5625 11.8125 15.4062 12 15C12.4375 15.9688 12.1562 15.5 12.875 16.8125C12.9375 16.9375 13.0625 17 13.2188 17H14.125C14.4062 17 14.5938 16.6875 14.4375 16.4375L13 14C13 13.9688 13.9375 12.4375 14.4375 11.5625C14.5938 11.3125 14.4062 11 14.125 11Z" fill="#222222"/>
</svg>
