<svg width="24" height="24" viewBox="0 0 24 24" fill="none" xmlns="http://www.w3.org/2000/svg">
<path d="M18.3125 6.03125C16.5 4.5 13.7188 4.71875 12 6.5C10.25 4.71875 7.46877 4.5 5.65627 6.03125C3.31252 8 3.65627 11.2187 5.34377 12.9375L10.8125 18.5312C11.125 18.8438 11.5313 19.0312 12 19.0312C12.4375 19.0312 12.8438 18.8438 13.1563 18.5312L18.6563 12.9375C20.3125 11.2187 20.6563 8 18.3125 6.03125ZM17.5625 11.875L12.0938 17.4688C12.0313 17.5312 11.9688 17.5312 11.875 17.4688L6.40627 11.875C5.25002 10.7187 5.03127 8.53125 6.62502 7.1875C7.84377 6.15625 9.71877 6.3125 10.9063 7.5L12 8.625L13.0938 7.5C14.25 6.3125 16.125 6.15625 17.3438 7.15625C18.9375 8.53125 18.7188 10.7187 17.5625 11.875Z" fill="#222222"/>
</svg>
