<svg width="24" height="24" viewBox="0 0 24 24" fill="none" xmlns="http://www.w3.org/2000/svg">
<path d="M18.4375 5.96875C16.7188 4.53125 14.1875 4.75 12.5938 6.40625L12 7.03125L11.375 6.40625C10.0938 5.09375 7.53126 4.28125 5.53126 5.96875C3.56251 7.65625 3.46876 10.6563 5.21876 12.4688L11.2813 18.7188C11.4688 18.9063 11.7188 19 11.9688 19C12.25 19 12.5 18.9063 12.6875 18.7188L18.75 12.4688C20.5 10.6563 20.4063 7.65625 18.4375 5.96875ZM18.0313 11.7813L12 18.0313L5.93751 11.7813C4.75001 10.5313 4.50001 8.1875 6.18751 6.75C7.90626 5.28125 9.90626 6.34375 10.6563 7.09375L12 8.46875L13.3125 7.09375C14.0313 6.34375 16.0625 5.28125 17.7813 6.75C19.4688 8.1875 19.2188 10.5313 18.0313 11.7813Z" fill="#222222"/>
</svg>
