<svg width="24" height="24" viewBox="0 0 24 24" fill="none" xmlns="http://www.w3.org/2000/svg">
<path d="M16.2389 12.8239C15.7559 12 14.7048 11.7728 13.9093 12.2557C13.4548 11.6591 12.6877 11.4603 12.0343 11.6875V9.18754C12.0343 8.25004 11.2673 7.45459 10.3298 7.45459C9.39229 7.45459 8.62524 8.25004 8.62524 9.18754V14.358C8.05706 13.9602 7.29001 13.9602 6.69342 14.3864C5.92638 14.9545 5.78433 16.0057 6.3241 16.7727L9.56274 21.3182C9.87524 21.7443 10.3866 22 10.9548 22H16.2105C17.0059 22 17.6877 21.4602 17.8582 20.6932L18.6821 17.1989C18.7105 17.0852 18.7389 16.9148 18.7389 16.8011V14.3295C18.7389 13.0511 17.3468 12.2273 16.2389 12.8239ZM8.34115 15.2955L9.1366 16.4318C9.1366 16.5455 9.22183 16.6591 9.36388 16.6591C9.47751 16.6591 9.59115 16.5455 9.59115 16.4318C9.59115 16.375 9.56274 16.3182 9.53433 16.2898V9.18754C9.53433 8.10799 11.1252 8.10799 11.1252 9.18754V14.3295C11.1252 14.4432 11.2105 14.5568 11.3525 14.5568H11.5514C11.665 14.5568 11.7786 14.4432 11.7786 14.3295V13.3068C11.7786 12.2273 13.3411 12.2273 13.3411 13.3068V14.3295C13.3411 14.4432 13.4548 14.5568 13.5684 14.5568H13.7957C13.9093 14.5568 14.023 14.4432 14.023 14.3295V13.7045C14.023 12.6534 15.5855 12.6534 15.5855 13.7045V14.3295C15.5855 14.4432 15.6991 14.5568 15.8127 14.5568H16.0116C16.1252 14.5568 16.2389 14.4432 16.2389 14.3295C16.2389 13.2784 17.8298 13.2784 17.8298 14.3295V16.8011C17.8298 16.858 17.8014 16.9148 17.8014 16.9716L16.9775 20.4943C16.8923 20.8636 16.5798 21.0909 16.2105 21.0909H10.9548C10.6991 21.0909 10.4434 20.9773 10.3014 20.7784L7.06274 16.233C6.43774 15.3523 7.74456 14.4716 8.34115 15.2955Z" fill="#222222"/>
<path d="M15.4182 2.22882C15.333 2.33525 15.333 2.48426 15.4182 2.59069L16.5251 3.67628H8.20222L9.30909 2.59069C9.39424 2.48426 9.39424 2.33525 9.30909 2.22882L9.1388 2.07982C9.05366 1.97339 8.88337 1.97339 8.79823 2.07982L6.98891 3.86785C6.88248 3.97428 6.88248 4.12328 6.98891 4.22971L8.79823 6.01774C8.88337 6.12417 9.05366 6.12417 9.1388 6.01774L9.30909 5.86874C9.39424 5.76231 9.39424 5.6133 9.30909 5.50687L8.20222 4.4H16.5251L15.4182 5.50687C15.333 5.6133 15.333 5.76231 15.4182 5.86874L15.5885 6.01774C15.6736 6.12417 15.8439 6.12417 15.929 6.01774L17.7384 4.22971C17.8448 4.12328 17.8448 3.97428 17.7384 3.86785L15.929 2.07982C15.8439 1.97339 15.6736 1.97339 15.5885 2.07982L15.4182 2.22882Z" fill="#222222"/>
</svg>
