<svg width="24" height="24" viewBox="0 0 24 24" fill="none" xmlns="http://www.w3.org/2000/svg">
<path d="M15.3342 13.3542C14.8133 12.7031 13.954 12.5208 13.2508 12.8594C12.8602 12.4427 12.3133 12.2604 11.7665 12.3385V10.4114C11.7665 9.47392 10.9852 8.66663 10.0477 8.66663C9.08418 8.66663 8.32897 9.47392 8.32897 10.4114V14.6302C7.80814 14.4219 7.18314 14.5 6.71439 14.8646C5.93314 15.4115 5.77689 16.5052 6.32376 17.2865L9.18834 21.2969C9.50084 21.7396 10.0217 22 10.5946 22H15.23C16.0373 22 16.7144 21.4531 16.8967 20.6719L17.6258 17.5729C17.6519 17.4687 17.6519 17.2865 17.6779 17.1562V14.9687C17.6779 13.7708 16.454 12.9115 15.3342 13.3542ZM8.09459 15.9583L8.82376 16.9479C9.05814 17.2865 9.57897 17.1302 9.57897 16.7135V10.4114C9.57897 9.76038 10.5165 9.76038 10.5165 10.4114V14.9687C10.5165 15.2031 10.6988 15.3854 10.9331 15.3854H11.1154C11.3498 15.3854 11.5321 15.2031 11.5321 14.9687V14.0573C11.5321 13.4062 12.4956 13.4062 12.4956 14.0573V14.9687C12.4956 15.2031 12.6779 15.3854 12.9123 15.3854H13.0946C13.3029 15.3854 13.5113 15.2031 13.5113 14.9687V14.4219C13.5113 13.7708 14.4488 13.7708 14.4488 14.4219V14.9687C14.4488 15.2031 14.6311 15.3854 14.8654 15.3854H15.0477C15.2821 15.3854 15.4644 15.2031 15.4644 14.9687C15.4644 14.3177 16.4019 14.3177 16.4019 14.9687V17.1562C16.4019 17.2083 16.4019 17.2344 16.4019 17.2865L15.6988 20.3854C15.6467 20.6198 15.4383 20.75 15.23 20.75H10.5946C10.4383 20.75 10.2821 20.6979 10.204 20.5677L7.33939 16.5573C6.9748 16.0365 7.73001 15.4375 8.09459 15.9583Z" fill="#222222"/>
<path d="M14.8866 2.40691C14.7971 2.49634 14.7971 2.63943 14.8866 2.71098L16.1923 3.96301H8.30772L9.61341 2.71098C9.70285 2.63943 9.70285 2.49634 9.61341 2.40691L9.25569 2.06707C9.18415 1.97764 9.04106 1.97764 8.95163 2.06707L6.73374 4.28496C6.64431 4.37439 6.64431 4.49959 6.73374 4.58902L8.96951 6.80691C9.04106 6.89634 9.18415 6.89634 9.25569 6.80691L9.61341 6.46707C9.70285 6.37764 9.70285 6.23455 9.61341 6.14512L8.30772 4.89309H16.1923L14.8866 6.14512C14.7971 6.23455 14.7971 6.37764 14.8866 6.46707L15.2443 6.80691C15.3158 6.89634 15.4589 6.89634 15.5484 6.80691L17.7663 4.58902C17.8557 4.49959 17.8557 4.37439 17.7663 4.28496L15.5484 2.06707C15.4589 1.97764 15.3158 1.97764 15.2443 2.06707L14.8866 2.40691Z" fill="#222222"/>
</svg>
