<svg width="24" height="24" viewBox="0 0 24 24" fill="none" xmlns="http://www.w3.org/2000/svg">
<path d="M18.1911 14.6087C18.1911 14.0109 17.702 13.5217 17.1041 13.5217C16.4791 13.5217 16.0172 14.0109 16.0172 14.6087H15.7998V13.9565C15.7998 13.3587 15.3107 12.8696 14.7128 12.8696C14.0878 12.8696 13.6259 13.3587 13.6259 13.9565V14.6087H13.4085V13.5217C13.4085 12.9239 12.9194 12.4348 12.3215 12.4348C11.6965 12.4348 11.2346 12.9239 11.2346 13.5217V14.6087H11.0172V9.17386C11.0172 8.57604 10.5281 8.08691 9.93024 8.08691C9.30524 8.08691 8.84328 8.57604 8.84328 9.17386V16.6739L7.97371 15.5054C7.62045 15.0163 6.94111 14.9076 6.45197 15.2609C5.96284 15.6141 5.85415 16.2935 6.20741 16.7826L9.68567 21.5652C9.87589 21.8098 10.2563 22 10.5824 22H16.2346C16.7237 22 17.1585 21.6739 17.2672 21.1848L18.1368 17.4891C18.1639 17.4076 18.1911 17.3261 18.1911 17.2174V14.6087ZM11.2346 16.7826V19.3913H11.0172V16.7826H11.2346ZM13.6259 16.7826V19.3913H13.4085V16.7826H13.6259ZM16.0172 16.7826V19.3913H15.7998V16.7826H16.0172Z" fill="#222222"/>
<path d="M9.71283 4.97688H15.3307L14.4535 5.79809C14.2855 5.98473 14.2668 6.26469 14.4535 6.45133L14.6588 6.63796C14.8267 6.8246 15.1067 6.8246 15.2933 6.63796L17.1224 4.80891C17.365 4.58494 17.365 4.193 17.1224 3.96903L15.2933 2.13998C15.1067 1.95334 14.8267 1.95334 14.6588 2.13998L14.4535 2.32662C14.2668 2.51326 14.2855 2.79321 14.4535 2.97985L15.3307 3.7824H9.71283L10.59 2.97985C10.758 2.79321 10.7767 2.51326 10.59 2.32662L10.3847 2.13998C10.2168 1.95334 9.9368 1.95334 9.75016 2.13998L7.9211 3.96903C7.67847 4.193 7.67847 4.58494 7.9211 4.80891L9.75016 6.63796C9.9368 6.8246 10.2168 6.8246 10.3847 6.63796L10.59 6.45133C10.7767 6.26469 10.758 5.98473 10.59 5.79809L9.71283 4.97688Z" fill="#222222"/>
</svg>
