<svg width="24" height="24" viewBox="0 0 24 24" fill="none" xmlns="http://www.w3.org/2000/svg">
<path d="M19.9062 11.1875L18 9.625V7.1875C18 7.09375 17.9062 7 17.8125 7H17.1875C17.0625 7 17 7.09375 17 7.1875V8.8125L12.625 5.25C12.4688 5.125 12.1875 5.03125 12 5.03125C11.7812 5.03125 11.5 5.125 11.3438 5.25L4.09375 11.1875C4.03125 11.2188 4 11.3125 4 11.375C4 11.4062 4 11.5 4.03125 11.5312L4.34375 11.9062C4.40625 11.9688 4.5 12 4.5625 12C4.59375 12 4.65625 11.9688 4.71875 11.9375L6 10.9062V18.5C6 18.7812 6.21875 19 6.5 19H10.5C10.75 19 11 18.7812 11 18.5V14.5H13V18.5C13 18.7812 13.2188 19 13.5 19H17.5C17.75 19 18 18.7812 18 18.5V10.9062L19.25 11.9375C19.3125 11.9688 19.375 12 19.4062 12C19.5 12 19.5625 11.9688 19.625 11.9062L19.9375 11.5312C19.9688 11.5 19.9688 11.4062 19.9688 11.375C19.9688 11.3125 19.9375 11.2188 19.9062 11.1875ZM16.9688 18L13.9688 18.0312V14C13.9688 13.75 13.75 13.5 13.5 13.5H10.4688C10.2188 13.5 9.96875 13.7188 9.96875 14V18H7V10.0938L12 6L17 10.0938L16.9688 18Z" fill="#222222"/>
</svg>
