<svg width="24" height="24" viewBox="0 0 24 24" fill="none" xmlns="http://www.w3.org/2000/svg">
<path d="M11.75 8.65625L6 13.4062V18.5C6 18.7812 6.21875 19 6.5 19H10C10.25 19 10.4688 18.7812 10.4688 18.5V15.5C10.4688 15.25 10.7188 15 10.9688 15H12.9688C13.25 15 13.4688 15.25 13.4688 15.5V18.5C13.4688 18.7812 13.7188 19 13.9688 19H17.5C17.75 19 18 18.7812 18 18.5V13.375L12.2188 8.65625C12.1562 8.59375 12.0625 8.5625 12 8.5625C11.9062 8.5625 11.8125 8.59375 11.75 8.65625ZM20.8438 11.875L18.25 9.71875V5.40625C18.25 5.1875 18.0625 5.03125 17.875 5.03125H16.125C15.9062 5.03125 15.75 5.1875 15.75 5.40625V7.65625L12.9375 5.34375C12.7188 5.15625 12.2812 5.03125 11.9688 5.03125C11.6875 5.03125 11.25 5.15625 11.0312 5.34375L3.125 11.875C3.03125 11.9375 2.96875 12.0625 2.96875 12.1562C2.96875 12.25 3.03125 12.3438 3.0625 12.4062L3.875 13.375C3.9375 13.4375 4.0625 13.5 4.15625 13.5C4.21875 13.5 4.34375 13.4688 4.40625 13.4062L11.75 7.375C11.8125 7.3125 11.9062 7.28125 12 7.28125C12.0625 7.28125 12.1562 7.3125 12.2188 7.375L19.5625 13.4062C19.625 13.4688 19.75 13.5 19.8125 13.5C19.9062 13.5 20.0312 13.4375 20.0938 13.375L20.9062 12.4062C20.9375 12.3438 21 12.25 21 12.1562C21 12.0625 20.9375 11.9375 20.8438 11.875Z" fill="#222222"/>
</svg>
