<svg width="24" height="24" viewBox="0 0 24 24" fill="none" xmlns="http://www.w3.org/2000/svg">
<path d="M12 7C10.3438 7 9 8.375 9 10C9 11.6562 10.3438 13 12 13C13.625 13 15 11.6562 15 10C15 8.375 13.625 7 12 7ZM12 12C10.875 12 10 11.125 10 10C10 8.90625 10.875 8 12 8C13.0938 8 14 8.90625 14 10C14 11.125 13.0938 12 12 12ZM12 4C8.65625 4 6 6.6875 6 10C6 12.4375 6.8125 13.125 11.375 19.6875C11.6562 20.125 12.3125 20.125 12.5938 19.6875C17.1562 13.125 18 12.4375 18 10C18 6.6875 15.3125 4 12 4ZM12 18.8125C7.625 12.5312 7 12.0312 7 10C7 8.6875 7.5 7.4375 8.4375 6.46875C9.40625 5.53125 10.6562 5 12 5C13.3125 5 14.5625 5.53125 15.5312 6.46875C16.4688 7.4375 17 8.6875 17 10C17 12.0312 16.3438 12.5312 12 18.8125Z" fill="#222222"/>
</svg>
