<svg width="24" height="24" viewBox="0 0 24 24" fill="none" xmlns="http://www.w3.org/2000/svg">
<path d="M13 17C13 16.4688 12.5312 16 12 16C11.4375 16 11 16.4688 11 17C11 17.5625 11.4375 18 12 18C12.5312 18 13 17.5625 13 17ZM14.5 15.125V6.875C14.5 6.6875 14.3125 6.5 14.125 6.5H9.875C9.65625 6.5 9.5 6.6875 9.5 6.875V15.125C9.5 15.3438 9.65625 15.5 9.875 15.5H14.125C14.3125 15.5 14.5 15.3438 14.5 15.125ZM17 5.5C17 4.6875 16.3125 4 15.5 4H8.5C7.65625 4 7 4.6875 7 5.5V18.5C7 19.3438 7.65625 20 8.5 20H15.5C16.3125 20 17 19.3438 17 18.5V5.5ZM15.5 18.3125C15.5 18.4375 15.4062 18.5 15.3125 18.5H8.6875C8.5625 18.5 8.5 18.4375 8.5 18.3125V5.6875C8.5 5.59375 8.5625 5.5 8.6875 5.5H15.3125C15.4062 5.5 15.5 5.59375 15.5 5.6875V18.3125Z" fill="#222222"/>
</svg>
