<svg width="24" height="24" viewBox="0 0 24 24" fill="none" xmlns="http://www.w3.org/2000/svg">
<path d="M13 17C13 16.4688 12.5312 16 12 16C11.4375 16 11 16.4688 11 17C11 17.5625 11.4375 18 12 18C12.5312 18 13 17.5625 13 17ZM14 7V14.5H10V7H14ZM14.625 6H9.375C9.15625 6 9 6.1875 9 6.375V15.125C9 15.3438 9.15625 15.5 9.375 15.5H14.625C14.8125 15.5 15 15.3438 15 15.125V6.375C15 6.1875 14.8125 6 14.625 6ZM17 5.5C17 4.6875 16.3125 4 15.5 4H8.5C7.65625 4 7 4.6875 7 5.5V18.5C7 19.3438 7.65625 20 8.5 20H15.5C16.3125 20 17 19.3438 17 18.5V5.5ZM16 5.5V18.5C16 18.7812 15.75 19 15.5 19H8.5C8.21875 19 8 18.7812 8 18.5V5.5C8 5.25 8.21875 5 8.5 5H15.5C15.75 5 16 5.25 16 5.5Z" fill="#222222"/>
</svg>
