<svg width="24" height="24" viewBox="0 0 24 24" fill="none" xmlns="http://www.w3.org/2000/svg">
<path d="M15.5 4H8.5C7.65625 4 7 4.6875 7 5.5V18.5C7 19.3438 7.65625 20 8.5 20H15.5C16.3125 20 17 19.3438 17 18.5V5.5C17 4.6875 16.3125 4 15.5 4ZM12 19C11.4375 19 11 18.5625 11 18C11 17.4688 11.4375 17 12 17C12.5312 17 13 17.4688 13 18C13 18.5625 12.5312 19 12 19ZM15.5 15.625C15.5 15.8438 15.3125 16 15.125 16H8.875C8.65625 16 8.5 15.8438 8.5 15.625V5.875C8.5 5.6875 8.65625 5.5 8.875 5.5H15.125C15.3125 5.5 15.5 5.6875 15.5 5.875V15.625Z" fill="#222222"/>
</svg>
