<svg width="24" height="24" viewBox="0 0 24 24" fill="none" xmlns="http://www.w3.org/2000/svg">
<path d="M19.5312 15.3125L16.0312 13.8125C15.9375 13.7812 15.8125 13.75 15.7188 13.75C15.5312 13.75 15.2812 13.875 15.1562 14.0312L13.5938 15.9375C11.5312 14.9375 9.03125 12.4688 8.0625 10.4062L9.96875 8.84375C10.125 8.71875 10.25 8.46875 10.25 8.25C10.25 8.1875 10.2188 8.0625 10.1875 7.96875L8.6875 4.46875C8.5625 4.21875 8.25 4.03125 7.96875 4.03125C7.9375 4.03125 7.875 4.03125 7.8125 4.03125L4.5625 4.78125C4.25 4.84375 4 5.1875 4 5.5C4 13.5312 10.4688 20 18.5 20C18.8125 20 19.1562 19.75 19.2188 19.4375L19.9688 16.1875C19.9688 16.125 19.9688 16.0625 19.9688 16.0312C19.9688 15.75 19.7812 15.4375 19.5312 15.3125Z" fill="#222222"/>
</svg>
