<svg width="24" height="24" viewBox="0 0 24 24" fill="none" xmlns="http://www.w3.org/2000/svg">
<path d="M19.4062 15L16 13.5312C15.9062 13.5 15.7188 13.4688 15.625 13.4688C15.375 13.4688 15.0312 13.625 14.875 13.8125L13.5 15.5C11.6562 14.5938 9.40625 12.375 8.5 10.5L10.1875 9.125C10.375 8.96875 10.5312 8.625 10.5312 8.375C10.5312 8.28125 10.5 8.09375 10.4688 8L9 4.59375C8.875 4.28125 8.46875 4.03125 8.125 4.03125C8.0625 4.03125 7.9375 4.03125 7.90625 4.03125L4.75 4.78125C4.3125 4.875 4 5.28125 4 5.71875C4 13.625 10.4062 20 18.2812 20C18.7188 20 19.125 19.6875 19.25 19.25L19.9688 16.0938C19.9688 16.0625 19.9688 15.9375 19.9688 15.875C19.9688 15.5312 19.7188 15.125 19.4062 15ZM18.25 19C10.9375 19 5 13.0625 5 5.75L8.09375 5.03125L9.53125 8.375L7.25 10.25C8.78125 13.4688 10.5312 15.2188 13.7812 16.75L15.625 14.4688L18.9688 15.9062L18.25 19Z" fill="#222222"/>
</svg>
