<svg width="24" height="24" viewBox="0 0 24 24" fill="none" xmlns="http://www.w3.org/2000/svg">
<path d="M18.8571 10.2857H13.7143V5.14286C13.7143 4.53571 13.1786 4 12.5714 4H11.4286C10.7857 4 10.2857 4.53571 10.2857 5.14286V10.2857H5.14286C4.5 10.2857 4 10.8214 4 11.4286V12.5714C4 13.2143 4.5 13.7143 5.14286 13.7143H10.2857V18.8571C10.2857 19.5 10.7857 20 11.4286 20H12.5714C13.1786 20 13.7143 19.5 13.7143 18.8571V13.7143H18.8571C19.4643 13.7143 20 13.2143 20 12.5714V11.4286C20 10.8214 19.4643 10.2857 18.8571 10.2857Z" fill="#222222"/>
</svg>
