<svg width="24" height="24" viewBox="0 0 24 24" fill="none" xmlns="http://www.w3.org/2000/svg">
<path d="M19.3333 10.6667H13.3333V4.66667C13.3333 4.33333 13 4 12.6667 4H11.3333C10.9583 4 10.6667 4.33333 10.6667 4.66667V10.6667H4.66667C4.29167 10.6667 4 11 4 11.3333V12.6667C4 13.0417 4.29167 13.3333 4.66667 13.3333H10.6667V19.3333C10.6667 19.7083 10.9583 20 11.3333 20H12.6667C13 20 13.3333 19.7083 13.3333 19.3333V13.3333H19.3333C19.6667 13.3333 20 13.0417 20 12.6667V11.3333C20 11 19.6667 10.6667 19.3333 10.6667Z" fill="#222222"/>
</svg>
