<svg width="24" height="24" viewBox="0 0 24 24" fill="none" xmlns="http://www.w3.org/2000/svg">
<path d="M21.8437 9.625L18.9687 4.53125C18.7187 4.09375 18.125 3.84375 17.5937 4.15625L2.49997 13.0313C1.99997 13.3125 1.84372 13.9375 2.12497 14.4063L4.99997 19.5C5.24997 19.9375 5.84372 20.1875 6.37497 19.875L21.5 11C21.9687 10.7188 22.125 10.0938 21.8437 9.625ZM6.06247 18.3125L3.65622 14.0938L5.09372 13.25L6.18747 15.125C6.24997 15.25 6.40622 15.2813 6.53122 15.2188L7.34372 14.75C7.46872 14.6563 7.49997 14.5 7.43747 14.4063L6.37497 12.5L7.62497 11.7813L8.21872 12.7813C8.28122 12.9063 8.43747 12.9688 8.56247 12.875L9.37497 12.4063C9.49997 12.3438 9.56247 12.1875 9.46872 12.0625L8.90622 11.0313L10.1562 10.2813L11.2187 12.1563C11.2812 12.2813 11.4375 12.3438 11.5625 12.25L12.4062 11.7813C12.5312 11.7188 12.5625 11.5625 12.5 11.4375L11.4375 9.53125L12.6875 8.8125L13.2812 9.8125C13.3437 9.9375 13.5 10 13.625 9.90625L14.4375 9.4375C14.5625 9.375 14.5937 9.21875 14.5312 9.09375L13.9375 8.0625L15.2187 7.3125L16.2812 9.1875C16.3437 9.3125 16.5 9.375 16.625 9.28125L17.4375 8.8125C17.5625 8.75 17.625 8.59375 17.5312 8.46875L16.4687 6.5625L17.9062 5.71875L20.3125 9.9375L6.06247 18.3125Z" fill="#222222"/>
</svg>
