<svg width="24" height="24" viewBox="0 0 24 24" fill="none" xmlns="http://www.w3.org/2000/svg">
<path d="M21.8437 9.25L19.375 5C19.0937 4.53125 18.4687 4.375 18 4.65625L15.8437 5.875L17.7187 9.03125C17.7812 9.15625 17.75 9.3125 17.625 9.375L17.1875 9.625C17.0625 9.6875 16.9062 9.65625 16.8437 9.53125L15 6.34375L13.25 7.34375L14.125 8.8125C14.1875 8.9375 14.1562 9.09375 14.0312 9.15625L13.625 9.40625C13.5 9.46875 13.3437 9.4375 13.2812 9.3125L12.4062 7.8125L10.6875 8.8125L12.5312 11.9688C12.625 12.0938 12.5625 12.25 12.4375 12.3125L12.0312 12.5625C11.9062 12.625 11.75 12.5938 11.6875 12.4688L9.81249 9.28125L8.09374 10.2813L8.96874 11.75C9.03124 11.875 8.99999 12.0313 8.87499 12.0938L8.43749 12.3438C8.31249 12.4063 8.15624 12.3438 8.09374 12.25L7.21874 10.75L5.49999 11.7188L7.37499 14.9063C7.43749 15.0313 7.40624 15.1875 7.28124 15.25L6.84374 15.5C6.71874 15.5625 6.56249 15.5313 6.49999 15.4063L4.62499 12.2188L2.46874 13.4375C1.99999 13.7188 1.84374 14.3125 2.12499 14.7813L4.59374 19.0313C4.87499 19.5 5.49999 19.6563 5.96874 19.375L21.5 10.5625C21.9687 10.3125 22.125 9.71875 21.8437 9.25Z" fill="#222222"/>
</svg>
