<svg width="24" height="24" viewBox="0 0 24 24" fill="none" xmlns="http://www.w3.org/2000/svg">
<path d="M21.8437 9.1875L19.375 4.875C19.1875 4.5625 18.8437 4.375 18.5 4.375C18.3437 4.375 18.1562 4.4375 18 4.53125L2.46874 13.4688C1.99999 13.75 1.84374 14.3438 2.12499 14.8438L4.59374 19.125C4.78124 19.4688 5.12499 19.625 5.46874 19.625C5.62499 19.625 5.81249 19.5938 5.96874 19.5L21.5 10.5625C21.9687 10.2812 22.125 9.65625 21.8437 9.1875ZM5.46874 18.6562L2.96874 14.3438L5.12499 13.0938L6.49999 15.4688C6.56249 15.5938 6.71874 15.625 6.84374 15.5625L7.28124 15.3125C7.40624 15.2188 7.43749 15.0938 7.37499 14.9688L5.99999 12.5938L7.71874 11.5938L8.59374 13.0938C8.65624 13.2188 8.81249 13.25 8.93749 13.1875L9.37499 12.9375C9.49999 12.875 9.53124 12.7188 9.46874 12.5938L8.59374 11.0938L10.3125 10.0938L11.6875 12.4688C11.75 12.5938 11.9062 12.625 12.0312 12.5625L12.4687 12.3125C12.5625 12.25 12.625 12.0938 12.5312 11.9688L11.1875 9.625L12.9062 8.625L13.7812 10.125C13.8437 10.25 14 10.2812 14.125 10.2188L14.5312 9.96875C14.6562 9.90625 14.6875 9.75 14.625 9.625L13.75 8.125L15.5 7.125L16.8437 9.5C16.9375 9.625 17.0625 9.65625 17.1875 9.59375L17.625 9.34375C17.75 9.25 17.7812 9.125 17.7187 9L16.3437 6.625L18.5 5.375L21 9.6875L5.46874 18.6562Z" fill="#222222"/>
</svg>
