<svg width="24" height="24" viewBox="0 0 24 24" fill="none" xmlns="http://www.w3.org/2000/svg">
<path d="M19.875 19.0625L15.8438 15.0312C15.7812 14.9688 15.6875 14.9375 15.5938 14.9375H15.25C16.3438 13.75 17 12.2188 17 10.5C17 6.9375 14.0625 4 10.5 4C6.90625 4 4 6.9375 4 10.5C4 14.0938 6.90625 17 10.5 17C12.1875 17 13.75 16.3438 14.9062 15.2812V15.5938C14.9062 15.7188 14.9375 15.8125 15 15.875L19.0312 19.9062C19.1875 20.0625 19.4062 20.0625 19.5625 19.9062L19.875 19.5938C20.0312 19.4375 20.0312 19.2188 19.875 19.0625ZM10.5 16C7.4375 16 5 13.5625 5 10.5C5 7.46875 7.4375 5 10.5 5C13.5312 5 16 7.46875 16 10.5C16 13.5625 13.5312 16 10.5 16Z" fill="#222222"/>
</svg>
