<svg width="24" height="24" viewBox="0 0 24 24" fill="none" xmlns="http://www.w3.org/2000/svg">
<path d="M19.7812 17.8438L16.6562 14.7188C16.5 14.5938 16.3125 14.5 16.125 14.5H15.625C16.4688 13.4062 17 12.0312 17 10.5C17 6.9375 14.0625 4 10.5 4C6.90625 4 4 6.9375 4 10.5C4 14.0938 6.90625 17 10.5 17C12 17 13.375 16.5 14.5 15.625V16.1562C14.5 16.3438 14.5625 16.5312 14.7188 16.6875L17.8125 19.7812C18.125 20.0938 18.5938 20.0938 18.875 19.7812L19.75 18.9062C20.0625 18.625 20.0625 18.1562 19.7812 17.8438ZM10.5 14.5C8.28125 14.5 6.5 12.7188 6.5 10.5C6.5 8.3125 8.28125 6.5 10.5 6.5C12.6875 6.5 14.5 8.3125 14.5 10.5C14.5 12.7188 12.6875 14.5 10.5 14.5Z" fill="#222222"/>
</svg>
