<svg width="24" height="24" viewBox="0 0 24 24" fill="none" xmlns="http://www.w3.org/2000/svg">
<path d="M21 10.75C21 10.3437 20.6562 10 20.25 10H18.125L14.7812 5.4375C14.4688 4.96875 13.8438 4.875 13.4062 5.21875C12.9375 5.53125 12.8438 6.15625 13.1875 6.59375L15.6562 10H8.3125L10.7812 6.59375C11.125 6.15625 11.0312 5.53125 10.5625 5.21875C10.125 4.875 9.5 4.96875 9.1875 5.4375L5.84375 10H3.75C3.3125 10 3 10.3437 3 10.75V11.25C3 11.6875 3.3125 12 3.75 12H4L4.8125 17.7187C4.90625 18.4687 5.53125 19 6.28125 19H17.6875C18.4375 19 19.0625 18.4687 19.1562 17.7187L20 12H20.25C20.6562 12 21 11.6875 21 11.25V10.75ZM12.75 16.25C12.75 16.6875 12.4062 17 12 17C11.5625 17 11.25 16.6875 11.25 16.25V12.75C11.25 12.3437 11.5625 12 12 12C12.4062 12 12.75 12.3437 12.75 12.75V16.25ZM16.25 16.25C16.25 16.6875 15.9062 17 15.5 17C15.0625 17 14.75 16.6875 14.75 16.25V12.75C14.75 12.3437 15.0625 12 15.5 12C15.9062 12 16.25 12.3437 16.25 12.75V16.25ZM9.25 16.25C9.25 16.6875 8.90625 17 8.5 17C8.0625 17 7.75 16.6875 7.75 16.25V12.75C7.75 12.3437 8.0625 12 8.5 12C8.90625 12 9.25 12.3437 9.25 12.75V16.25Z" fill="#222222"/>
</svg>
