<svg width="24" height="24" viewBox="0 0 24 24" fill="none" xmlns="http://www.w3.org/2000/svg">
<path d="M20.625 9.99999H18.3438L14.3125 5.28124C14.0312 4.96874 13.5625 4.93749 13.25 5.18749C12.9375 5.46874 12.9062 5.93749 13.1562 6.24999L16.375 9.99999H7.59375L10.8125 6.24999C11.0625 5.93749 11.0312 5.46874 10.7188 5.18749C10.4062 4.93749 9.9375 4.96874 9.65625 5.28124L5.625 9.99999H3.375C3.15625 9.99999 3 10.1875 3 10.375V11.125C3 11.3437 3.15625 11.5 3.375 11.5H3.9375L4.8125 17.7187C4.90625 18.4687 5.53125 19 6.28125 19H17.6875C18.4375 19 19.0625 18.4687 19.1562 17.7187L20.0312 11.5H20.625C20.8125 11.5 21 11.3437 21 11.125V10.375C21 10.1875 20.8125 9.99999 20.625 9.99999ZM17.6875 17.5H6.28125L5.46875 11.5H18.5L17.6875 17.5ZM12.75 13.25C12.75 12.8437 12.4062 12.5 12 12.5C11.5625 12.5 11.25 12.8437 11.25 13.25V15.75C11.25 16.1875 11.5625 16.5 12 16.5C12.4062 16.5 12.75 16.1875 12.75 15.75V13.25ZM16.25 13.25C16.25 12.8437 15.9062 12.5 15.5 12.5C15.0625 12.5 14.75 12.8437 14.75 13.25V15.75C14.75 16.1875 15.0625 16.5 15.5 16.5C15.9062 16.5 16.25 16.1875 16.25 15.75V13.25ZM9.25 13.25C9.25 12.8437 8.90625 12.5 8.5 12.5C8.0625 12.5 7.75 12.8437 7.75 13.25V15.75C7.75 16.1875 8.0625 16.5 8.5 16.5C8.90625 16.5 9.25 16.1875 9.25 15.75V13.25Z" fill="#222222"/>
</svg>
