<svg width="24" height="24" viewBox="0 0 24 24" fill="none" xmlns="http://www.w3.org/2000/svg">
<path d="M20.625 10H18.2188L13.8438 5.1875C13.6562 4.96875 13.3438 4.96875 13.1562 5.15625C12.9375 5.34375 12.9375 5.65625 13.125 5.84375L16.875 10H7.09375L10.8438 5.84375C11.0312 5.65625 11.0312 5.34375 10.8125 5.15625C10.625 4.96875 10.3125 4.96875 10.125 5.1875L5.75 10H3.375C3.15625 10 3 10.1875 3 10.375V10.625C3 10.8437 3.15625 11 3.375 11H3.875L4.8125 17.7187C4.90625 18.4687 5.53125 19 6.28125 19H17.6875C18.4375 19 19.0625 18.4687 19.1562 17.7187L20.0938 11H20.625C20.8125 11 21 10.8437 21 10.625V10.375C21 10.1875 20.8125 10 20.625 10ZM18.1875 17.5937C18.125 17.8437 17.9375 18 17.6875 18H6.28125C6.03125 18 5.84375 17.8437 5.78125 17.5937L4.875 11H19.0938L18.1875 17.5937ZM12.5 12.75C12.5 12.5 12.25 12.25 12 12.25C11.7188 12.25 11.5 12.5 11.5 12.75V16.25C11.5 16.5312 11.7188 16.75 12 16.75C12.25 16.75 12.5 16.5312 12.5 16.25V12.75ZM16 12.75C16 12.5 15.75 12.25 15.5 12.25C15.2188 12.25 15 12.5 15 12.75V16.25C15 16.5312 15.2188 16.75 15.5 16.75C15.75 16.75 16 16.5312 16 16.25V12.75ZM9 12.75C9 12.5 8.75 12.25 8.5 12.25C8.21875 12.25 8 12.5 8 12.75V16.25C8 16.5312 8.21875 16.75 8.5 16.75C8.75 16.75 9 16.5312 9 16.25V12.75Z" fill="#222222"/>
</svg>
