<svg width="24" height="24" viewBox="0 0 24 24" fill="none" xmlns="http://www.w3.org/2000/svg">
<path d="M19.5 13.4375L20.9688 6.9375C21.0625 6.46875 20.7188 6 20.2188 6H7.96875L7.6875 4.625C7.59375 4.28125 7.28125 4 6.9375 4H3.75C3.3125 4 3 4.34375 3 4.75V5.25C3 5.6875 3.3125 6 3.75 6H5.90625L8.125 16.75C7.59375 17.0625 7.25 17.625 7.25 18.25C7.25 19.2188 8.03125 20 9 20C9.9375 20 10.75 19.2188 10.75 18.25C10.75 17.7812 10.5312 17.3438 10.2188 17H16.75C16.4375 17.3438 16.25 17.7812 16.25 18.25C16.25 19.2188 17.0312 20 18 20C18.9375 20 19.75 19.2188 19.75 18.25C19.75 17.5625 19.3438 16.9688 18.75 16.6875L18.9062 15.9375C19.0312 15.4688 18.6562 15 18.1875 15H9.8125L9.59375 14H18.75C19.0938 14 19.4062 13.7812 19.5 13.4375Z" fill="#222222"/>
</svg>
