<svg width="24" height="24" viewBox="0 0 24 24" fill="none" xmlns="http://www.w3.org/2000/svg">
<path d="M13.5 17H11.5C11.2188 17 11 17.25 11 17.5V18.5C11 18.7812 11.2188 19 11.5 19H13.5C13.75 19 14 18.7812 14 18.5V17.5C14 17.25 13.75 17 13.5 17ZM9.5 15H8V5.5C8 5.25 7.75 5 7.5 5H6.5C6.21875 5 6 5.25 6 5.5V15H4.5C4.03125 15 3.8125 15.5625 4.125 15.875L6.625 18.875C6.71875 18.9375 6.875 19 7 19C7.09375 19 7.25 18.9375 7.34375 18.875L9.84375 15.875C10.1562 15.5625 9.9375 15 9.5 15ZM17.5 9H11.5C11.2188 9 11 9.25 11 9.5V10.5C11 10.7812 11.2188 11 11.5 11H17.5C17.75 11 18 10.7812 18 10.5V9.5C18 9.25 17.75 9 17.5 9ZM15.5 13H11.5C11.2188 13 11 13.25 11 13.5V14.5C11 14.7812 11.2188 15 11.5 15H15.5C15.75 15 16 14.7812 16 14.5V13.5C16 13.25 15.75 13 15.5 13ZM19.5 5H11.5C11.2188 5 11 5.25 11 5.5V6.5C11 6.78125 11.2188 7 11.5 7H19.5C19.75 7 20 6.78125 20 6.5V5.5C20 5.25 19.75 5 19.5 5Z" fill="#222222"/>
</svg>
