<svg width="24" height="24" viewBox="0 0 24 24" fill="none" xmlns="http://www.w3.org/2000/svg">
<path d="M13.5 17H11.5C11.2188 17 11 17.25 11 17.5V18.5C11 18.7812 11.2188 19 11.5 19H13.5C13.75 19 14 18.7812 14 18.5V17.5C14 17.25 13.75 17 13.5 17ZM4.5 9H6V18.5C6 18.7812 6.21875 19 6.5 19H7.5C7.75 19 8 18.7812 8 18.5V9H9.5C9.9375 9 10.1562 8.46875 9.84375 8.15625L7.34375 5.15625C7.25 5.09375 7.09375 5.03125 7 5.03125C6.875 5.03125 6.71875 5.09375 6.625 5.15625L4.125 8.15625C3.8125 8.46875 4.03125 9 4.5 9ZM17.5 9H11.5C11.2188 9 11 9.25 11 9.5V10.5C11 10.7812 11.2188 11 11.5 11H17.5C17.75 11 18 10.7812 18 10.5V9.5C18 9.25 17.75 9 17.5 9ZM15.5 13H11.5C11.2188 13 11 13.25 11 13.5V14.5C11 14.7812 11.2188 15 11.5 15H15.5C15.75 15 16 14.7812 16 14.5V13.5C16 13.25 15.75 13 15.5 13ZM19.5 5H11.5C11.2188 5 11 5.25 11 5.5V6.5C11 6.78125 11.2188 7 11.5 7H19.5C19.75 7 20 6.78125 20 6.5V5.5C20 5.25 19.75 5 19.5 5Z" fill="#222222"/>
</svg>
