<svg width="24" height="24" viewBox="0 0 24 24" fill="none" xmlns="http://www.w3.org/2000/svg">
<path d="M13.5 15.75H11.5C11.2188 15.75 11 16 11 16.25V16.75C11 17.0312 11.2188 17.25 11.5 17.25H13.5C13.75 17.25 14 17.0312 14 16.75V16.25C14 16 13.75 15.75 13.5 15.75ZM4.875 8H6.25V18.5C6.25 18.7812 6.46875 19 6.75 19H7.25C7.5 19 7.75 18.7812 7.75 18.5V8H9.125C9.3125 8 9.5 7.84375 9.5 7.625C9.5 7.5625 9.4375 7.4375 9.375 7.375L7.25 5.125C7.1875 5.0625 7.0625 5.03125 7 5.03125C6.90625 5.03125 6.78125 5.0625 6.71875 5.125L4.59375 7.375C4.53125 7.4375 4.5 7.5625 4.5 7.625C4.5 7.84375 4.65625 8 4.875 8ZM17.5 9.75H11.5C11.2188 9.75 11 10 11 10.25V10.75C11 11.0312 11.2188 11.25 11.5 11.25H17.5C17.75 11.25 18 11.0312 18 10.75V10.25C18 10 17.75 9.75 17.5 9.75ZM19.5 6.75H11.5C11.2188 6.75 11 7 11 7.25V7.75C11 8.03125 11.2188 8.25 11.5 8.25H19.5C19.75 8.25 20 8.03125 20 7.75V7.25C20 7 19.75 6.75 19.5 6.75ZM15.5 12.75H11.5C11.2188 12.75 11 13 11 13.25V13.75C11 14.0312 11.2188 14.25 11.5 14.25H15.5C15.75 14.25 16 14.0312 16 13.75V13.25C16 13 15.75 12.75 15.5 12.75Z" fill="#222222"/>
</svg>
