<svg width="24" height="24" viewBox="0 0 24 24" fill="none" xmlns="http://www.w3.org/2000/svg">
<path d="M15.75 13H12.25C12.0938 13 12 13.125 12 13.25V13.75C12 13.9062 12.0938 14 12.25 14H15.75C15.875 14 16 13.9062 16 13.75V13.25C16 13.125 15.875 13 15.75 13ZM13.75 16H12.25C12.0938 16 12 16.125 12 16.25V16.75C12 16.9062 12.0938 17 12.25 17H13.75C13.875 17 14 16.9062 14 16.75V16.25C14 16.125 13.875 16 13.75 16ZM19.75 7H12.25C12.0938 7 12 7.125 12 7.25V7.75C12 7.90625 12.0938 8 12.25 8H19.75C19.875 8 20 7.90625 20 7.75V7.25C20 7.125 19.875 7 19.75 7ZM17.75 10H12.25C12.0938 10 12 10.125 12 10.25V10.75C12 10.9062 12.0938 11 12.25 11H17.75C17.875 11 18 10.9062 18 10.75V10.25C18 10.125 17.875 10 17.75 10ZM10.1875 15.625C10.125 15.5625 10.0312 15.5312 9.9375 15.5312C9.84375 15.5312 9.71875 15.5625 9.6875 15.625L8 17.2812V5.25C8 5.125 7.875 5 7.75 5H7.25C7.09375 5 7 5.125 7 5.25V17.25L5.3125 15.625C5.25 15.5625 5.125 15.5312 5.03125 15.5312C4.9375 15.5312 4.84375 15.5625 4.78125 15.625L4.59375 15.8125C4.53125 15.875 4.46875 15.9688 4.46875 16.0625C4.46875 16.1562 4.53125 16.2812 4.59375 16.3438L7.21875 18.9062C7.28125 18.9688 7.40625 19.0312 7.46875 19.0312C7.5625 19.0312 7.6875 18.9688 7.75 18.9062L10.375 16.3438C10.4375 16.2812 10.5 16.1562 10.5 16.0625C10.5 15.9688 10.4375 15.875 10.375 15.8125L10.1875 15.625Z" fill="#222222"/>
</svg>
