<svg width="24" height="24" viewBox="0 0 24 24" fill="none" xmlns="http://www.w3.org/2000/svg">
<path d="M13.75 16H12.25C12.0938 16 12 16.125 12 16.25V16.75C12 16.9062 12.0938 17 12.25 17H13.75C13.875 17 14 16.9062 14 16.75V16.25C14 16.125 13.875 16 13.75 16ZM15.75 13H12.25C12.0938 13 12 13.125 12 13.25V13.75C12 13.9062 12.0938 14 12.25 14H15.75C15.875 14 16 13.9062 16 13.75V13.25C16 13.125 15.875 13 15.75 13ZM19.75 7H12.25C12.0938 7 12 7.125 12 7.25V7.75C12 7.90625 12.0938 8 12.25 8H19.75C19.875 8 20 7.90625 20 7.75V7.25C20 7.125 19.875 7 19.75 7ZM17.75 10H12.25C12.0938 10 12 10.125 12 10.25V10.75C12 10.9062 12.0938 11 12.25 11H17.75C17.875 11 18 10.9062 18 10.75V10.25C18 10.125 17.875 10 17.75 10ZM7.75 5.125C7.6875 5.0625 7.5625 5.03125 7.5 5.03125C7.40625 5.03125 7.28125 5.0625 7.21875 5.125L4.59375 7.6875C4.53125 7.75 4.46875 7.875 4.46875 7.96875C4.46875 8.0625 4.53125 8.15625 4.59375 8.21875L4.78125 8.40625C4.84375 8.46875 4.9375 8.53125 5.03125 8.53125C5.125 8.53125 5.25 8.46875 5.3125 8.40625L7 6.75V18.75C7 18.9062 7.09375 19 7.25 19H7.75C7.875 19 8 18.9062 8 18.75V6.78125L9.65625 8.40625C9.71875 8.46875 9.84375 8.5 9.9375 8.5C10.0312 8.5 10.125 8.46875 10.1875 8.40625L10.375 8.21875C10.4375 8.15625 10.5 8.0625 10.5 7.96875C10.5 7.875 10.4375 7.75 10.375 7.6875L7.75 5.125Z" fill="#222222"/>
</svg>
