<svg width="24" height="24" viewBox="0 0 24 24" fill="none" xmlns="http://www.w3.org/2000/svg">
<path d="M15.0184 11.9773L19.5574 7.4383C20.1475 6.89362 20.1475 5.98582 19.5574 5.44113L18.5589 4.44255C18.0142 3.85248 17.1064 3.85248 16.5617 4.44255L12.0227 8.98156L7.4383 4.44255C6.89362 3.85248 5.98582 3.85248 5.44113 4.44255L4.44255 5.44113C3.85248 5.98582 3.85248 6.89362 4.44255 7.4383L8.98156 11.9773L4.44255 16.5617C3.85248 17.1064 3.85248 18.0142 4.44255 18.5589L5.44113 19.5574C5.98582 20.1475 6.89362 20.1475 7.4383 19.5574L12.0227 15.0184L16.5617 19.5574C17.1064 20.1475 18.0142 20.1475 18.5589 19.5574L19.5574 18.5589C20.1475 18.0142 20.1475 17.1064 19.5574 16.5617L15.0184 11.9773Z" fill="#222222"/>
</svg>
