<svg width="24" height="24" viewBox="0 0 24 24" fill="none" xmlns="http://www.w3.org/2000/svg">
<path d="M14.375 11.975L19.775 6.625C20.075 6.325 20.075 5.775 19.775 5.475L18.525 4.225C18.225 3.925 17.675 3.925 17.375 4.225L12.025 9.625L6.625 4.225C6.325 3.925 5.775 3.925 5.475 4.225L4.225 5.475C3.925 5.775 3.925 6.325 4.225 6.625L9.625 11.975L4.225 17.375C3.925 17.675 3.925 18.225 4.225 18.525L5.475 19.775C5.775 20.075 6.325 20.075 6.625 19.775L12.025 14.375L17.375 19.775C17.675 20.075 18.225 20.075 18.525 19.775L19.775 18.525C20.075 18.225 20.075 17.675 19.775 17.375L14.375 11.975Z" fill="#222222"/>
</svg>
