<svg width="24" height="24" viewBox="0 0 24 24" fill="none" xmlns="http://www.w3.org/2000/svg">
<path d="M14.25 17.5H14.75C14.875 17.5 15 17.4062 15 17.25V8.75C15 8.625 14.875 8.5 14.75 8.5H14.25C14.0938 8.5 14 8.625 14 8.75V17.25C14 17.4062 14.0938 17.5 14.25 17.5ZM9.25 17.5H9.75C9.875 17.5 10 17.4062 10 17.25V8.75C10 8.625 9.875 8.5 9.75 8.5H9.25C9.09375 8.5 9 8.625 9 8.75V17.25C9 17.4062 9.09375 17.5 9.25 17.5ZM18.75 6H15.5L14.4375 4.625C14.1875 4.28125 13.6562 4 13.25 4H10.75C10.3125 4 9.78125 4.28125 9.53125 4.625L8.5 6H5.25C5.09375 6 5 6.125 5 6.25V6.75C5 6.90625 5.09375 7 5.25 7H6V18.5C6 19.3438 6.65625 20 7.5 20H16.5C17.3125 20 18 19.3438 18 18.5V7H18.75C18.875 7 19 6.90625 19 6.75V6.25C19 6.125 18.875 6 18.75 6ZM10.3438 5.21875C10.4062 5.09375 10.5938 5.03125 10.75 5H13.25C13.375 5.03125 13.5625 5.09375 13.625 5.21875L14.25 6H9.75L10.3438 5.21875ZM17 18.5C17 18.7812 16.75 19 16.5 19H7.5C7.21875 19 7 18.7812 7 18.5V7H17V18.5ZM11.75 17.5H12.25C12.375 17.5 12.5 17.4062 12.5 17.25V8.75C12.5 8.625 12.375 8.5 12.25 8.5H11.75C11.5938 8.5 11.5 8.625 11.5 8.75V17.25C11.5 17.4062 11.5938 17.5 11.75 17.5Z" fill="#222222"/>
</svg>
