<svg width="24" height="24" viewBox="0 0 24 24" fill="none" xmlns="http://www.w3.org/2000/svg">
<path d="M6 18.5C6 19.3438 6.65625 20 7.5 20H16.5C17.3125 20 18 19.3438 18 18.5V8H6V18.5ZM14.5 10.5C14.5 10.25 14.7188 10 15 10C15.25 10 15.5 10.25 15.5 10.5V17.5C15.5 17.7812 15.25 18 15 18C14.7188 18 14.5 17.7812 14.5 17.5V10.5ZM11.5 10.5C11.5 10.25 11.7188 10 12 10C12.25 10 12.5 10.25 12.5 10.5V17.5C12.5 17.7812 12.25 18 12 18C11.7188 18 11.5 17.7812 11.5 17.5V10.5ZM8.5 10.5C8.5 10.25 8.71875 10 9 10C9.25 10 9.5 10.25 9.5 10.5V17.5C9.5 17.7812 9.25 18 9 18C8.71875 18 8.5 17.7812 8.5 17.5V10.5ZM18.5 5H14.75L14.4375 4.4375C14.3125 4.1875 14.0312 4 13.7812 4H10.1875C9.9375 4 9.625 4.1875 9.53125 4.4375L9.25 5H5.5C5.21875 5 5 5.25 5 5.5V6.5C5 6.78125 5.21875 7 5.5 7H18.5C18.75 7 19 6.78125 19 6.5V5.5C19 5.25 18.75 5 18.5 5Z" fill="#222222"/>
</svg>
