<svg width="24" height="24" viewBox="0 0 24 24" fill="none" xmlns="http://www.w3.org/2000/svg">
<path d="M14.7812 13C13.875 13 13.4688 13.5 12 13.5C10.5 13.5 10.0938 13 9.1875 13C6.875 13 5 14.9062 5 17.2188V18.5C5 19.3438 5.65625 20 6.5 20H17.5C18.3125 20 19 19.3438 19 18.5V17.2188C19 14.9062 17.0938 13 14.7812 13ZM18 18.5C18 18.7812 17.75 19 17.5 19H6.5C6.21875 19 6 18.7812 6 18.5V17.2188C6 15.4375 7.40625 14 9.1875 14C9.8125 14 10.4062 14.5 12 14.5C13.5625 14.5 14.1875 14 14.7812 14C16.5625 14 18 15.4375 18 17.2188V18.5ZM12 12C14.1875 12 16 10.2188 16 8C16 5.8125 14.1875 4 12 4C9.78125 4 8 5.8125 8 8C8 10.2188 9.78125 12 12 12ZM12 5C13.625 5 15 6.375 15 8C15 9.65625 13.625 11 12 11C10.3438 11 9 9.65625 9 8C9 6.375 10.3438 5 12 5Z" fill="#222222"/>
</svg>
